<svg xmlns="http://www.w3.org/2000/svg" width="745.354" height="419.884" viewBox="0 0 745.354 419.884">
  <g id="undraw_profile_re_4a55" transform="translate(0)">
    <path id="Caminho_9" data-name="Caminho 9" d="M208.128,671.426l-.784-1.45c10.518-5.688,23.607-12.767,30.444-24.384,6.74-11.452,6.891-27,.395-40.583-5.528-11.558-15.684-21.914-29.368-29.947-2.7-1.585-5.533-3.086-8.273-4.539-6.623-3.51-13.472-7.14-19.12-12.29-7.778-7.093-13.663-19-9.277-29.6A19.673,19.673,0,0,1,189.2,516.7l.093,1.647a18.028,18.028,0,0,0-15.626,10.925c-4.076,9.853,1.516,21.033,8.869,27.739,5.493,5.009,12.248,8.589,18.781,12.051,2.756,1.461,5.605,2.971,8.336,4.574,13.969,8.2,24.35,18.8,30.021,30.657,6.73,14.07,6.553,30.214-.461,42.132C232.138,658.44,218.825,665.641,208.128,671.426Z" transform="translate(-152.05 -251.753)" fill="#202024"/>
    <ellipse id="Elipse_5" data-name="Elipse 5" cx="14.432" cy="7.01" rx="14.432" ry="7.01" transform="translate(33.169 259.624)" fill="#202024"/>
    <ellipse id="Elipse_6" data-name="Elipse 6" cx="14.432" cy="7.01" rx="14.432" ry="7.01" transform="translate(44.714 305.806)" fill="#202024"/>
    <ellipse id="Elipse_7" data-name="Elipse 7" cx="14.432" cy="7.01" rx="14.432" ry="7.01" transform="translate(18.324 313.229)" fill="#202024"/>
    <ellipse id="Elipse_8" data-name="Elipse 8" cx="14.432" cy="7.01" rx="14.432" ry="7.01" transform="translate(59.558 351.989)" fill="#202024"/>
    <ellipse id="Elipse_9" data-name="Elipse 9" cx="14.432" cy="7.01" rx="14.432" ry="7.01" transform="translate(88.422 351.989)" fill="#202024"/>
    <rect id="Rectangle_62" data-name="Rectangle 62" width="464.128" height="220.237" transform="translate(281.226 12.724)" fill="#202024"/>
    <path id="Rectangle_75" data-name="Rectangle 75" d="M0,0H437.585V183.751H0Z" transform="translate(294.497 31.61)" fill="#29292e"/>
    <rect id="Rectangle_80" data-name="Rectangle 80" width="464.128" height="19.718" transform="translate(281.028)" fill="#8d1dfc"/>
    <circle id="Ellipse_90" data-name="Ellipse 90" cx="3.655" cy="3.655" r="3.655" transform="translate(292.026 5.466)" fill="#e6e6e6"/>
    <circle id="Ellipse_91" data-name="Ellipse 91" cx="3.655" cy="3.655" r="3.655" transform="translate(305.898 5.466)" fill="#e6e6e6"/>
    <circle id="Ellipse_92" data-name="Ellipse 92" cx="3.655" cy="3.655" r="3.655" transform="translate(319.77 5.466)" fill="#e6e6e6"/>
    <path id="Path_142" data-name="Path 142" d="M742.153,286.635a1.77,1.77,0,1,0,0,3.541H839.3a1.77,1.77,0,1,0,0-3.541Z" transform="translate(-251.934 -211.418)" fill="#3c3c42"/>
    <path id="Path_143" data-name="Path 143" d="M742.153,299.518a1.77,1.77,0,1,0,0,3.541h49.6a1.77,1.77,0,1,0,0-3.541Z" transform="translate(-251.934 -213.676)" fill="#3c3c42"/>
    <path id="Path_142-2" data-name="Path 142" d="M739.188,361.871a1.771,1.771,0,0,0,0,3.541H921.346a1.771,1.771,0,1,0,0-3.541Z" transform="translate(-251.415 -224.608)" fill="#3c3c42"/>
    <path id="Path_143-2" data-name="Path 143" d="M739.188,374.754a1.771,1.771,0,0,0,0,3.541H873.793a1.771,1.771,0,1,0,0-3.541Z" transform="translate(-251.415 -226.866)" fill="#3c3c42"/>
    <path id="Path_142-3" data-name="Path 142" d="M739.188,387.345a1.77,1.77,0,1,0,0,3.541H921.346a1.77,1.77,0,1,0,0-3.541Z" transform="translate(-251.415 -229.074)" fill="#3c3c42"/>
    <path id="Path_143-3" data-name="Path 143" d="M739.188,400.227a1.771,1.771,0,0,0,0,3.541H873.793a1.771,1.771,0,1,0,0-3.541Z" transform="translate(-251.415 -231.332)" fill="#3c3c42"/>
    <circle id="Elipse_10" data-name="Elipse 10" cx="15.417" cy="15.417" r="15.417" transform="translate(377.123 113.615)" fill="#e8b6bd"/>
    <path id="Caminho_10" data-name="Caminho 10" d="M614.261,333.995s7.195,1.927,10.92,2.7,3.34-1.413,3.34-1.413,4.882.642,4.625.128,2.056-3.212-.642-6.3-1.927-5.4-1.927-5.4h-2.313l-.642-.9h-3.6s-3.977-3.487-11.043-2.46-15.422,3.744-16.193,7.984c-.1.575-.242,1.214-.4,1.889-1.932,8.157,2.173,15.79,6.431,23.011,1.046,1.775,6.108,5.644,5.979,2.989s-4.557-8.618-1.473-9S615.674,339.005,614.261,333.995Z" transform="translate(-226.603 -217.297)" fill="#202024"/>
    <path id="Caminho_11" data-name="Caminho 11" d="M611.6,406.127a53.922,53.922,0,0,1-8.823-1.45l.162-3.074,1.35-24.445.012-.187h27.157l4.262,22.508.575,3.037c-1.125.437-2.262.85-3.424,1.212-.013,0-.013.013-.025.013-1.612.5-3.25.937-4.9,1.3a56.544,56.544,0,0,1-6.648,1.025,51.153,51.153,0,0,1-5.2.25C614.6,406.314,613.092,406.252,611.6,406.127Z" transform="translate(-227.81 -227.255)" fill="#8d1dfc"/>
    <path id="Caminho_12" data-name="Caminho 12" d="M589.761,401.775c-1.125-.487-2.212-1.012-3.287-1.562l-.463-.237c-.312-.162-.637-.337-.95-.512q-.638-.356-1.238-.712c-.388-.225-.787-.462-1.175-.7-.025-.013-.037-.025-.062-.025-1.35-.862-2.675-1.75-3.949-2.712l-.638-.487-.225-3.6.325-.2,21.809-13.872.3-.187.025-.012,3.074.012v11.448c1.737,2.512,2.912,7.773,3.637,14.66.1.987.187,2,.275,3.049a53.919,53.919,0,0,1-8.823-1.45c-.312-.062-.613-.138-.925-.225a51.716,51.716,0,0,1-5.374-1.725c-.538-.2-1.062-.412-1.587-.625l-.05-.025C590.236,401.975,589.986,401.875,589.761,401.775Z" transform="translate(-223.427 -227.252)" fill="#3c3c42"/>
    <path id="Caminho_14" data-name="Caminho 14" d="M648.049,399.373c-.375.2-.75.4-1.125.587-.088.05-.162.087-.237.125-.5.25-.987.5-1.487.737-.013.013-.038.013-.038.025-.025.013-.062.025-.087.038-1.125.537-2.262,1.037-3.425,1.5-1.125.437-2.262.85-3.424,1.212-.013,0-.013.013-.025.013-1.612.5-3.25.937-4.9,1.3a10.311,10.311,0,0,1,.4-3.037l.012-.175,1.075-17.4-1.438-7.461,4.125-.612,22.683,12.21s-2.5,2.5-12.76,7.823C646.492,396.732,647.824,398.3,648.049,399.373Z" transform="translate(-233.161 -227.125)" fill="#3c3c42"/>
    <path id="Caminho_15" data-name="Caminho 15" d="M612.117,385.821c-1.625.15-3.275.225-4.924.225-1.6,0-3.187-.063-4.774-.213.1.987.187,2,.275,3.049,1.487.125,3,.188,4.5.188a51.18,51.18,0,0,0,5.2-.25,56.529,56.529,0,0,0,6.648-1.025,10.315,10.315,0,0,1,.4-3.037l.012-.175a51.955,51.955,0,0,1-7.336,1.237Zm47.228-70.137A55.231,55.231,0,1,0,563.9,368.149c.5.625,1.012,1.25,1.537,1.85.05.05.075.087.112.125a52.636,52.636,0,0,0,4.112,4.237c.35.325.712.65,1.075.962.038.025.063.062.1.087.75.675,1.525,1.312,2.324,1.925.113.087.213.162.312.25l.638.487c1.275.962,2.6,1.85,3.949,2.712.025,0,.037.013.062.025.388.237.787.475,1.175.7s.813.475,1.238.712c.312.175.637.35.95.512l.463.237c1.075.55,2.162,1.075,3.287,1.562.225.1.475.2.7.3l.05.025c.525.212,1.05.425,1.587.625a51.719,51.719,0,0,0,5.374,1.725c.313.088.613.162.925.225a53.921,53.921,0,0,0,8.823,1.45c1.487.125,3,.188,4.5.188a51.172,51.172,0,0,0,5.2-.25,56.533,56.533,0,0,0,6.648-1.025c1.65-.362,3.287-.8,4.9-1.3.012,0,.012-.013.025-.013,1.162-.362,2.3-.775,3.424-1.212,1.162-.462,2.3-.962,3.425-1.5.025-.013.062-.025.087-.038,0-.013.025-.013.038-.025.5-.237.987-.487,1.487-.737.075-.038.149-.075.237-.125.375-.187.749-.387,1.125-.587.025-.013.037-.025.062-.038.987-.55,1.962-1.125,2.925-1.737.262-.162.525-.325.787-.512.387-.237.762-.5,1.125-.762.488-.337.975-.687,1.45-1.05a3.86,3.86,0,0,0,.45-.337c1.162-.875,2.287-1.8,3.362-2.775a55.183,55.183,0,0,0,15.4-59.364Zm-16.334,56.139a53.449,53.449,0,0,1-4.249,3.6c-.325.25-.663.5-1,.725-.325.25-.65.487-.987.712-.287.2-.575.4-.875.587-.025.025-.062.037-.087.063-.213.15-.438.287-.65.425-.663.412-1.35.825-2.025,1.212-.162.087-.312.187-.475.275-.088.05-.175.1-.275.15-.375.212-.75.4-1.125.6-.05.037-.112.05-.162.087a.092.092,0,0,0-.05.025c-.262.138-.525.262-.787.387-.225.113-.438.225-.663.325-.912.437-1.85.85-2.787,1.237-.987.4-1.987.762-3,1.1-.25.088-.513.188-.775.262-1.188.375-2.374.712-3.587.987a51.964,51.964,0,0,1-7.336,1.237c-1.625.15-3.274.225-4.924.225-1.6,0-3.187-.063-4.775-.213a51.437,51.437,0,0,1-8.386-1.475c-.1-.025-.212-.05-.312-.075a47.933,47.933,0,0,1-6.611-2.25c-.112-.05-.237-.088-.337-.137-.125-.05-.237-.087-.337-.138-.125-.05-.237-.1-.35-.15-.937-.412-1.85-.862-2.762-1.325l-.425-.225c-.812-.425-1.612-.862-2.4-1.35-.275-.15-.562-.325-.837-.5-.312-.187-.625-.387-.925-.587l-.225-.15c-.7-.475-1.412-.95-2.087-1.462-.475-.35-.937-.687-1.4-1.05-.3-.225-.6-.462-.887-.712-.187-.138-.375-.3-.563-.462-.25-.212-.5-.425-.749-.65-.388-.312-.75-.662-1.1-.987a49.667,49.667,0,0,1-3.987-4.124c-.425-.475-.825-.95-1.212-1.45a3.016,3.016,0,0,1-.25-.312,52.2,52.2,0,1,1,76.735,5.561Z" transform="translate(-218.9 -210.011)" fill="#3c3c42"/>
    <path id="Caminho_16" data-name="Caminho 16" d="M163.436,488.407h10.111l4.81-39H163.434Z" transform="translate(-28.653 -78.789)" fill="#e8b6bd"/>
    <path id="Caminho_17" data-name="Caminho 17" d="M308.406,688.122h19.912a12.689,12.689,0,0,1,12.689,12.688v.413h-32.6Z" transform="translate(-176.202 -281.805)" fill="#29292e"/>
    <path id="Caminho_18" data-name="Caminho 18" d="M209.436,488.407h10.111l4.81-39H209.434Z" transform="translate(-36.717 -78.789)" fill="#e8b6bd"/>
    <path id="Caminho_19" data-name="Caminho 19" d="M354.406,688.122h19.912a12.689,12.689,0,0,1,12.689,12.688v.413h-32.6Z" transform="translate(-184.266 -281.805)" fill="#29292e"/>
    <path id="Caminho_20" data-name="Caminho 20" d="M271.257,496.5a8.293,8.293,0,0,0-1.553-12.621l7.025-28.62L262.3,460.4l-4.459,26.39a8.338,8.338,0,0,0,13.413,9.711Z" transform="translate(-167.152 -240.98)" fill="#e8b6bd"/>
    <path id="Caminho_21" data-name="Caminho 21" d="M403.311,493.5a8.293,8.293,0,0,1,1.553-12.621l-7.025-28.62,14.426,5.14,4.459,26.39a8.338,8.338,0,0,1-13.413,9.711Z" transform="translate(-191.881 -240.454)" fill="#e8b6bd"/>
    <path id="Caminho_22" data-name="Caminho 22" d="M142.367,282.982l14.014,164.166,20.5-1.87L185.092,318.4l7.305,50.238,1.463,79.8,18.555-1.237,10.3-85.849-2.528-83.142-70.442-7.133Z" transform="translate(-24.959 -47.525)" fill="#29292e"/>
    <path id="Caminho_30" data-name="Caminho 30" d="M21.265,0A21.265,21.265,0,1,1,0,21.265,21.265,21.265,0,0,1,21.265,0Z" transform="translate(134.692 43.541)" fill="#e8b6bd"/>
    <path id="Caminho_23" data-name="Caminho 23" d="M323.658,249.327s9.924,2.658,15.063,3.721,4.607-1.949,4.607-1.949,6.734.886,6.38.177,2.835-4.43-.886-8.683-2.658-7.443-2.658-7.443h-3.19l-.886-1.24h-4.962s-5.486-4.81-15.232-3.393-21.273,5.165-22.336,11.013c-.144.793-.334,1.674-.555,2.605-2.665,11.252,3,21.779,8.871,31.74,1.443,2.448,8.425,7.786,8.247,4.123s-6.285-11.887-2.032-12.418S325.607,256.238,323.658,249.327Z" transform="translate(-174.434 -201.533)" fill="#29292e"/>
    <path id="Caminho_24" data-name="Caminho 24" d="M308.786,308.6h37.45l26.48,139.846s-23.086,1.974-36.281,6.922-35.13-11.3-35.13-11.3Z" transform="translate(-174.957 -215.269)" fill="#8d1dfc"/>
    <path id="Caminho_25" data-name="Caminho 25" d="M308.557,324.391V308.6l-4.24-.026-30.981,19.7,6.723,107.92s7.956,36,20.025,35.631S321.457,343.1,308.557,324.391Z" transform="translate(-170.053 -215.264)" fill="#29292e"/>
    <path id="Caminho_26" data-name="Caminho 26" d="M280.373,335.439l-9.951-2.981s-7.367,2.157-7.367,9.579-6.347,112.873-6.347,112.873l20.164,1.782,4.326-53.628Z" transform="translate(-167.138 -219.451)" fill="#29292e"/>
    <path id="Caminho_27" data-name="Caminho 27" d="M351.963,318.706l-1.984-10.283,5.695-.851,20.617,8.247S394.847,451.48,386.6,455.6s-13.815.929-13.815.929-27.125-100.056-22.324-113.58Z" transform="translate(-183.475 -215.088)" fill="#29292e"/>
    <path id="Caminho_28" data-name="Caminho 28" d="M364.4,319.478l3.519-1.532s10.328-5.118,16.187,5.217,26.477,125.79,26.477,125.79l-16.964,3.19L380.94,410.592Z" transform="translate(-186.019 -216.685)" fill="#29292e"/>
    <path id="Caminho_29" data-name="Caminho 29" d="M463.125,704.222h-314.2a.825.825,0,1,1,0-1.649h314.2a.825.825,0,1,1,0,1.649Z" transform="translate(-148.096 -284.339)" fill="#202024"/>
  </g>
</svg>
