<svg xmlns="http://www.w3.org/2000/svg" width="534.655" height="489.501" viewBox="0 0 534.655 489.501">
  <g id="undraw_outer_space_re_u9vd" transform="translate(0.001 0)">
    <path id="Caminho_87" data-name="Caminho 87" d="M721.152,670.742l5.138,11.52c-4.176-.665-8.06,2.9-8.147,7.482s3.638,9.346,7.814,10c-.8,3.556-4.243,5.124-7.232,6.561s-6.212,3.821-5.99,7.61c.179,3.043,2.695,5.729,5.366,6.809s5.475.914,8.181.733c-4.1,4.289-4.5,12.352-.9,18.136s10.793,8.632,16.178,6.405c-3.8,4.733-2.978,13.4,1.744,18.285,4.76,4.924,11.659,5.4,17.689,4.882a78.347,78.347,0,0,0,42.069-16.672c4.61-3.663,8.917-7.972,11.547-13.592a24.874,24.874,0,0,0,.955-19.131c.661,8.012,8.68,14.339,15.893,14.693s13.512-3.709,18.865-8.343c7.118-6.162,13.708-14.8,12.731-25.457-.484-5.276-2.788-10.35-5.048-15.265l-4.382-9.528c-1.769-3.847-3.578-7.759-6.24-10.987s-6.358-5.727-10.056-5.7c.846-3.863,1.695-7.87.986-11.974s-3.422-8.354-7.112-9.315c-4.7-1.223-8.677,3.111-13.4,2.7-4.545-.393-8.3-4.954-12.714-6.762a10.178,10.178,0,0,0-10.983,1.9c-2.8,2.731-3.964,7.345-2.96,11.711.88,3.825,3.22,7.2,4.64,10.887s1.641,8.431-1.087,10.446c-3.292,2.431-8.3-.877-10.875-4.879s-4.049-8.848-7.3-12.213c-3.839-3.972-9.848-4.9-13.8-2.138s-5.464,8.958-3.471,14.221c1.629,4.3,5.361,8.658,4.067,12.711-1.368,4.283-7.354,3.741-10.965.714s-6.008-7.587-9.575-10.682a14.834,14.834,0,0,0-12.505-3.641,12.875,12.875,0,0,0-9.227,8.244" transform="translate(-378.612 -279.825)" fill="#e6e6e6"/>
    <path id="Caminho_88" data-name="Caminho 88" d="M852.725,629.49l-10.66,4.953a8.183,8.183,0,0,1-5.175.7,3.527,3.527,0,0,1-2.868-2.6l-2.48-11.585c-.468-2.185,1.342-4.771,4.3-6.147l5.887-2.735c2.962-1.376,6.105-1.092,7.474.676l7.254,9.367a3.527,3.527,0,0,1,.135,3.867A8.184,8.184,0,0,1,852.725,629.49Z" transform="translate(-427.004 -270.947)" fill="#29292e"/>
    <path id="Caminho_89" data-name="Caminho 89" d="M300.467,181.318a209.733,209.733,0,0,1,45.917-73.5c17.185-17.84,43.932-17.1,43.932-17.1l.153-.19A51.888,51.888,0,0,1,445.3,73.4c2.55.732,4.512,1.056,5.444.73,17.008-5.953,16.209-19.388,30.883-30.212,25.694-18.951,110.916,2.757,122.933,37.63,9.74,28.264,53.216,41.963,69.459,63.582q3.81,5.071,7.476,10.259,1.719,2.41,3.4,4.857a432.753,432.753,0,0,1,30.9,52.229,304.61,304.61,0,0,1,15.464,36.546c16.939,49.52,11.147,86.414-35.561,77.3q-8.293-1.623-16.188-2.9-11.432-1.866-22.067-3.066-14.321-1.629-27.25-2.134-4.347-.175-8.535-.234c-41.277-.572-71.9,7.2-95.221,19.256q-5.931,3.059-11.241,6.472a139.852,139.852,0,0,0-15.452,11.446,151.019,151.019,0,0,0-18.617,19.076l-.309.379c-27.282,33.371-36.261,70.315-55.238,76.82-81.125,27.811-132.432-73-137.694-171.622q-.4-7.454-.44-14.866-.025-3.313.033-6.608c.083-5.731.336-11.426.759-17.051q.237-3.226.55-6.418c.23-2.295.48-4.576.769-6.843A212.191,212.191,0,0,1,300.467,181.318Z" transform="translate(-205.294 -36.897)" fill="#8d1dfc"/>
    <path id="Caminho_90" data-name="Caminho 90" d="M729.9,371.812c-6.479,3.016-6.586,16.527-4.554,20.9l3.682,7.924,23.467-10.9-3.681-7.924C746.777,377.437,736.383,368.806,729.9,371.812Z" transform="translate(-383.281 -173.132)" fill="#29292e"/>
    <path id="Caminho_91" data-name="Caminho 91" d="M625.627,521.994a2.566,2.566,0,0,1-1.082-4.894l121.191-56.307a2.565,2.565,0,1,1,2.162,4.653h0L626.707,521.753A2.55,2.55,0,0,1,625.627,521.994Z" transform="translate(-342.071 -209.55)" fill="#29292e"/>
    <rect id="Retângulo_17" data-name="Retângulo 17" width="38.199" height="128.968" transform="translate(343.716 237.753) rotate(-24.92)" fill="#e6e6e6"/>
    <path id="Caminho_92" data-name="Caminho 92" d="M563.971,162.086c-6.479,3.016-6.586,16.527-4.554,20.9l3.682,7.924,23.467-10.9-3.682-7.924C580.848,167.711,570.454,159.08,563.971,162.086Z" transform="translate(-315.659 -87.662)" fill="#29292e"/>
    <path id="Caminho_93" data-name="Caminho 93" d="M798.3,652.185l-10.66,4.953a8.184,8.184,0,0,1-5.175.7,3.527,3.527,0,0,1-2.868-2.6l-2.48-11.585c-.468-2.185,1.342-4.771,4.3-6.147l5.887-2.735c2.962-1.376,6.105-1.092,7.474.676l7.255,9.367a3.527,3.527,0,0,1,.135,3.867A8.183,8.183,0,0,1,798.3,652.185Z" transform="translate(-404.823 -280.196)" fill="#29292e"/>
    <path id="Caminho_94" data-name="Caminho 94" d="M742.979,679.631l-10.66,4.953a8.184,8.184,0,0,1-5.175.7,3.527,3.527,0,0,1-2.868-2.6L721.8,671.1c-.468-2.185,1.342-4.771,4.3-6.147l5.887-2.735c2.962-1.376,6.105-1.092,7.474.676l7.254,9.367a3.527,3.527,0,0,1,.135,3.867,8.183,8.183,0,0,1-3.87,3.505Z" transform="translate(-382.279 -291.381)" fill="#29292e"/>
    <rect id="Retângulo_18" data-name="Retângulo 18" width="38.199" height="260.695" transform="translate(254.651 133.392) rotate(-24.92)" fill="#e6e6e6"/>
    <path id="Caminho_95" data-name="Caminho 95" d="M546.277,397.1l-3.887-8.553,2.238-1.032,3.875,8.526L604.619,520.46l-2.235,1.039" transform="translate(-221.042 -157.924)" fill="#3f3d56"/>
    <path id="Caminho_96" data-name="Caminho 96" d="M620.277,385.1l-3.887-8.553,2.238-1.032,3.875,8.526L678.619,508.46l-2.235,1.039" transform="translate(-251.199 -153.033)" fill="#3f3d56"/>
    <path id="Caminho_97" data-name="Caminho 97" d="M624.479,242.372,577.54,264.18c-2.988-4.649-12-28.474-9.974-35.543l-1.518-6.741,32.41-15.058,4.338,5.337C609.235,214.15,621.772,236.528,624.479,242.372Z" transform="translate(-318.837 -106.153)" fill="#e6e6e6"/>
    <path id="Caminho_98" data-name="Caminho 98" d="M596.747,195.925,563.3,211.464c-1.234.574-2.549.363-2.937-.471a1.154,1.154,0,0,1-.1-.381l-1.731-18.466a2.469,2.469,0,0,1,1.636-2.167l22.18-10.305a2.469,2.469,0,0,1,2.711.147l13,13.232c.665.677.3,1.835-.806,2.587a3.6,3.6,0,0,1-.5.284Z" transform="translate(-315.772 -94.951)" fill="#e6e6e6"/>
    <path id="Caminho_99" data-name="Caminho 99" d="M650.728,406.435a4.519,4.519,0,0,1-1.075-.127,3.321,3.321,0,0,1-2.309-1.792L626.9,360.505c-.846-1.822.29-4.152,2.532-5.194L659.371,341.4c2.243-1.043,4.756-.407,5.6,1.414l20.448,44.01a3.32,3.32,0,0,1-.119,2.92,5.04,5.04,0,0,1-2.414,2.274l-29.941,13.911A5.285,5.285,0,0,1,650.728,406.435Z" transform="translate(-343.521 -160.787)" fill="#29292e"/>
    <rect id="Retângulo_19" data-name="Retângulo 19" width="38.199" height="128.968" transform="translate(276.663 268.404) rotate(-24.92)" fill="#e6e6e6"/>
    <path id="Caminho_100" data-name="Caminho 100" d="M590.665,203.473l-10.159,4.72c-1.96.911-4.605-.607-5.895-3.383s-.744-5.776,1.216-6.687l10.159-4.72c1.96-.911,4.605.607,5.895,3.383S592.626,202.562,590.665,203.473Z" transform="translate(-322.042 -100.57)" fill="#29292e"/>
    <path id="Caminho_101" data-name="Caminho 101" d="M617.865,423.016c-6.479,3.016-6.586,16.527-4.554,20.9l3.681,7.924,23.467-10.9-3.682-7.924C634.742,428.641,624.348,420.01,617.865,423.016Z" transform="translate(-337.623 -193.999)" fill="#29292e"/>
    <path id="Caminho_102" data-name="Caminho 102" d="M437.908,375.223c-2.288,1.525-4.63-2.1-2.3-3.561C437.9,370.138,440.24,373.767,437.908,375.223Z" transform="translate(-265.286 -173.175)" fill="#e6e6e6"/>
    <path id="Caminho_103" data-name="Caminho 103" d="M839.908,287.223c-2.288,1.525-4.63-2.1-2.3-3.561C839.9,282.138,842.239,285.767,839.908,287.223Z" transform="translate(-429.114 -137.312)" fill="#e6e6e6"/>
    <path id="Caminho_104" data-name="Caminho 104" d="M565.908,357.223c-2.288,1.525-4.63-2.1-2.3-3.561C565.9,352.138,568.24,355.767,565.908,357.223Z" transform="translate(-317.45 -165.84)" fill="#e6e6e6"/>
    <path id="Caminho_105" data-name="Caminho 105" d="M437.908,597.223c-2.288,1.525-4.63-2.1-2.3-3.561C437.9,592.138,440.24,595.766,437.908,597.223Z" transform="translate(-265.286 -263.647)" fill="#e6e6e6"/>
    <path id="Caminho_106" data-name="Caminho 106" d="M634.907,96.223c-2.288,1.525-4.63-2.1-2.3-3.561C634.9,91.138,637.24,94.767,634.907,96.223Z" transform="translate(-345.57 -59.474)" fill="#e6e6e6"/>
    <path id="Caminho_107" data-name="Caminho 107" d="M444.908,214.223c-2.288,1.525-4.63-2.1-2.3-3.561C444.9,209.138,447.24,212.767,444.908,214.223Z" transform="translate(-268.139 -107.562)" fill="#e6e6e6"/>
    <path id="Caminho_108" data-name="Caminho 108" d="M568.822,144.832l-1.456-.319.319-1.456-.97-.213L566.4,144.3l-1.456-.319-.213.97,1.456.319-.319,1.456.97.213.319-1.456,1.456.319Z" transform="translate(-230.145 -58.214)" fill="#e6e6e6"/>
    <path id="Caminho_109" data-name="Caminho 109" d="M168.725,349.611l-1.456-.319.319-1.456-.97-.213-.319,1.456-1.456-.319-.213.97,1.456.319-.319,1.456.97.212.319-1.456,1.456.319Z" transform="translate(-67.092 -141.668)" fill="#e6e6e6"/>
    <path id="Caminho_110" data-name="Caminho 110" d="M815.174,476.856a5.042,5.042,0,0,1-6.689-2.445l-5.991-12.9a5.036,5.036,0,0,1,9.134-4.244l5.991,12.9A5.042,5.042,0,0,1,815.174,476.856Z" transform="translate(-415.005 -207.025)" fill="#29292e"/>
    <path id="Caminho_111" data-name="Caminho 111" d="M643.174,556.856a5.042,5.042,0,0,1-6.689-2.445l-5.991-12.9a5.036,5.036,0,1,1,9.134-4.244l5.991,12.9A5.042,5.042,0,0,1,643.174,556.856Z" transform="translate(-344.909 -239.628)" fill="#29292e"/>
    <path id="Caminho_112" data-name="Caminho 112" d="M774.965,423.942l-40.173,18.665c-2.558-3.979-10.268-24.37-8.537-30.42l.85-6.768,23.987-11.768,5.315,4.446C763.9,395.566,774.9,414.123,774.965,423.942Z" transform="translate(-384.024 -182.286)" fill="#e6e6e6"/>
    <path id="Caminho_113" data-name="Caminho 113" d="M764.807,433.3l-10.159,4.72c-1.96.911-4.943-1.335-6.648-5s-1.5-7.4.463-8.309l10.159-4.72c1.96-.911,4.943,1.335,6.648,5S766.767,432.386,764.807,433.3Z" transform="translate(-392.517 -192.934)" fill="#29292e"/>
    <path id="Caminho_114" data-name="Caminho 114" d="M480.277,440.1l-3.887-8.553,2.238-1.032,3.875,8.526L538.619,563.46l-2.235,1.039" transform="translate(-194.145 -175.448)" fill="#3f3d56"/>
    <path id="Caminho_115" data-name="Caminho 115" d="M661.574,475.145,621.4,493.81c-5.927-3.06-14.984-23.083-8.537-30.42l.85-6.768L637.7,444.854l5.315,4.446C648.528,450.992,659.258,470.145,661.574,475.145Z" transform="translate(-337.011 -203.153)" fill="#e6e6e6"/>
    <path id="Caminho_116" data-name="Caminho 116" d="M651.84,482.7l-10.159,4.72c-1.96.911-4.758-.935-6.235-4.115s-1.084-6.508.876-7.419l10.159-4.72c1.96-.911,4.758.935,6.235,4.115S653.8,481.789,651.84,482.7Z" transform="translate(-346.754 -213.78)" fill="#29292e"/>
    <circle id="Elipse_9" data-name="Elipse 9" cx="61.024" cy="61.024" r="61.024" transform="translate(40.46 60.34)" fill="#ff6584"/>
    <path id="Caminho_117" data-name="Caminho 117" d="M739.591,274.52l37.084-108.308L735.954,273.223a2.039,2.039,0,1,0,3.637,1.3Z" transform="translate(-387.899 -89.597)" fill="#f0f0f0" opacity="0.3"/>
    <path id="Caminho_118" data-name="Caminho 118" d="M595.013,201.966q-10.889,3.619-24.144,7.11C525.163,221.11,463.9,230.5,398.362,235.508s-127.515,5.047-174.52.1c-22.9-2.409-41.008-5.873-53.828-10.3-13.573-4.684-20.705-10.328-21.2-16.775-.96-12.56,23.825-23.615,44.786-30.677l.568,1.684c-28.785,9.7-44.262,19.946-43.58,28.857.868,11.349,27.635,20.622,73.439,25.44,46.9,4.933,108.766,4.9,174.2-.107s126.584-14.372,172.189-26.379c44.538-11.725,69.585-24.96,68.718-36.31-.721-9.423-19.3-17.484-52.3-22.7l.278-1.755c23.983,3.789,52.784,11.084,53.8,24.319.493,6.447-5.7,13.11-18.4,19.8A185.68,185.68,0,0,1,595.013,201.966Z" transform="translate(-148.791 -81.601)" fill="#3c3c42"/>
    <circle id="Elipse_10" data-name="Elipse 10" cx="6.341" cy="6.341" r="6.341" transform="translate(457.813 215.915)" fill="#ff6584"/>
    <circle id="Elipse_11" data-name="Elipse 11" cx="6.341" cy="6.341" r="6.341" transform="translate(498.101 387.731)" fill="#f2f2f2"/>
    <circle id="Elipse_12" data-name="Elipse 12" cx="12.362" cy="12.362" r="12.362" transform="translate(275.828 414.295)" fill="#f2f2f2"/>
    <circle id="Elipse_13" data-name="Elipse 13" cx="6.341" cy="6.341" r="6.341" transform="translate(187.648 262.72)" fill="#29292e"/>
    <path id="Caminho_119" data-name="Caminho 119" d="M687.226,478.768l27.358,7.082,16.779,32.958L703,519.92Z" transform="translate(-280.067 -195.113)" fill="#e6e6e6"/>
    <path id="Caminho_120" data-name="Caminho 120" d="M580.645,398.574,595.7,413.639l38.242,82.682L626.9,502.4Z" transform="translate(-236.632 -162.432)" fill="#ccc"/>
    <path id="Caminho_121" data-name="Caminho 121" d="M525.386,421.624l1.181,21.267,36.1,83.641,9.228-1.188Z" transform="translate(-214.112 -171.825)" fill="#ccc"/>
    <path id="Caminho_122" data-name="Caminho 122" d="M513.588,566.637l-14.734,24.115L509.716,626.1l21.159-18.928Z" transform="translate(-203.3 -230.923)" fill="#e6e6e6"/>
    <path id="Caminho_123" data-name="Caminho 123" d="M599.322,525.729q-11.475,0-25.154-.867c-47.169-3-108.266-13.409-172.038-29.323S279.53,460.113,236.484,440.6c-20.969-9.507-37.062-18.507-47.833-26.748-11.4-8.725-16.391-16.331-14.826-22.6,3.05-12.222,30.056-14.9,52.175-14.987l.008,1.777c-30.375.125-48.294,4.969-50.458,13.64-2.756,11.044,19.721,28.285,61.668,47.3,42.951,19.473,101.67,38.948,165.342,54.837S527.216,520.1,574.281,523.088c45.963,2.92,73.906-1.74,76.662-12.784,2.288-9.169-12.8-22.677-42.474-38.035l.817-1.578c21.564,11.16,46.595,27.166,43.381,40.044-1.566,6.273-9.542,10.643-23.708,12.988A185.651,185.651,0,0,1,599.322,525.729Z" transform="translate(-158.879 -175.197)" fill="#3c3c42"/>
  </g>
</svg>
