<svg xmlns="http://www.w3.org/2000/svg" width="666.84" height="490.868" viewBox="0 0 666.84 490.868">
  <g id="undraw_stars_re_6je7" transform="translate(0)">
    <path id="Caminho_151" data-name="Caminho 151" d="M785.261,409.469c-2.906,33.562-17.537,66-38.408,92.819q-1.309,1.683-2.649,3.334-3.015,3.716-6.186,7.292-3.88,4.406-7.985,8.609-3.342,3.459-6.84,6.77-2.7,2.583-5.461,5.064c-22.149,20.014-47.594,36.531-73.809,50.975-51.162,28.179-107.24,49.526-165.569,52.634s-119.206-13.6-161.977-53.382c-57.644-53.608-73.732-143.022-50.328-218.18,15.566-50,47.337-95.234,90.575-124.776,42.865-29.285,96.94-42.467,148.117-33.851,40.855-24.829,94.338-25.3,138.753-6.926,23.7,9.809,44.968,24.393,63.627,42.015a264.362,264.362,0,0,1,23.933,25.889q1.134,1.391,2.244,2.8,4.651,5.878,9,12,6.24,8.776,11.85,17.942c1.028,1.683,2.049,3.373,3.046,5.08.67,1.145,1.348,2.3,2.01,3.459a.233.233,0,0,1,.031.078c10.369,18.238,18.846,37.7,23.263,58.041.779,3.6,1.434,7.214,1.94,10.86v.008q.666,4.639,1.005,9.326a137.878,137.878,0,0,1-.179,22.118Z" transform="translate(-190.515 -146.461)" fill="#29292e"/>
    <path id="Caminho_152" data-name="Caminho 152" d="M707.275,510.36,591.612,414.006,703.976,514.22a2.681,2.681,0,1,0,3.3-3.859Z" transform="translate(-264.727 -196.614)" fill="#f0f0f0" opacity="0.3"/>
    <circle id="Elipse_18" data-name="Elipse 18" cx="69.338" cy="69.338" r="69.338" transform="translate(107.966 126.039)" fill="#f2f2f2"/>
    <path id="Caminho_153" data-name="Caminho 153" d="M442.795,361.827a63.148,63.148,0,1,1-55.78-62.762,63.1,63.1,0,0,1,55.78,62.762Z" transform="translate(-203.945 -171.124)" fill="#fff"/>
    <circle id="Elipse_19" data-name="Elipse 19" cx="19.477" cy="19.477" r="19.477" transform="translate(145.361 150.191)" fill="#e4e4e4"/>
    <path id="Caminho_154" data-name="Caminho 154" d="M467.534,348.2a19.478,19.478,0,0,1-21.5-32,63.146,63.146,0,0,1,21.5,32Z" transform="translate(-231.146 -175.006)" fill="#f2f2f2"/>
    <circle id="Elipse_20" data-name="Elipse 20" cx="7.012" cy="7.012" r="7.012" transform="translate(189.768 204.726)" fill="#e4e4e4"/>
    <path id="Caminho_155" data-name="Caminho 155" d="M383.68,455.76a7.048,7.048,0,0,1-.242,1.823,61.956,61.956,0,0,1-13.626-3.3,7.013,7.013,0,0,1,13.868,1.48Z" transform="translate(-215.725 -204.289)" fill="#f2f2f2"/>
    <path id="Caminho_156" data-name="Caminho 156" d="M330.636,371.827a14.025,14.025,0,0,1-13.087,13.992A63.532,63.532,0,0,1,318.918,358,14.024,14.024,0,0,1,330.636,371.827Z" transform="translate(-203.972 -184.24)" fill="#f2f2f2"/>
    <circle id="Elipse_21" data-name="Elipse 21" cx="2.884" cy="2.884" r="2.884" transform="translate(469.59 159.539)" fill="#8d1dfc"/>
    <circle id="Elipse_22" data-name="Elipse 22" cx="1.685" cy="1.685" r="1.685" transform="translate(444.18 91.764)" fill="#f0f0f0"/>
    <circle id="Elipse_23" data-name="Elipse 23" cx="1.685" cy="1.685" r="1.685" transform="translate(173.842 422.09)" fill="#f0f0f0"/>
    <circle id="Elipse_24" data-name="Elipse 24" cx="1.685" cy="1.685" r="1.685" transform="translate(453.747 256.651)" fill="#f0f0f0"/>
    <circle id="Elipse_25" data-name="Elipse 25" cx="2.884" cy="2.884" r="2.884" transform="translate(235.089 270.168)" fill="#8d1dfc"/>
    <circle id="Elipse_26" data-name="Elipse 26" cx="13.621" cy="13.621" r="13.621" transform="translate(119.957 310.85)" fill="#8d1dfc"/>
    <circle id="Elipse_27" data-name="Elipse 27" cx="1.685" cy="1.685" r="1.685" transform="translate(206.563 337.951)" fill="#f0f0f0"/>
    <circle id="Elipse_28" data-name="Elipse 28" cx="1.685" cy="1.685" r="1.685" transform="translate(377.959 74.624)" fill="#f0f0f0"/>
    <circle id="Elipse_29" data-name="Elipse 29" cx="1.685" cy="1.685" r="1.685" transform="translate(277.459 433.777)" fill="#f0f0f0"/>
    <circle id="Elipse_30" data-name="Elipse 30" cx="1.685" cy="1.685" r="1.685" transform="translate(252.528 90.206)" fill="#f0f0f0"/>
    <circle id="Elipse_31" data-name="Elipse 31" cx="1.685" cy="1.685" r="1.685" transform="translate(296.156 172.009)" fill="#f0f0f0"/>
    <circle id="Elipse_32" data-name="Elipse 32" cx="1.685" cy="1.685" r="1.685" transform="translate(229.373 372.733)" fill="#f0f0f0"/>
    <circle id="Elipse_33" data-name="Elipse 33" cx="1.685" cy="1.685" r="1.685" transform="translate(426.479 383.64)" fill="#f0f0f0"/>
    <circle id="Elipse_34" data-name="Elipse 34" cx="1.685" cy="1.685" r="1.685" transform="translate(339.223 285.477)" fill="#f0f0f0"/>
    <circle id="Elipse_35" data-name="Elipse 35" cx="1.685" cy="1.685" r="1.685" transform="translate(383.63 171.732)" fill="#f0f0f0"/>
    <circle id="Elipse_36" data-name="Elipse 36" cx="3.341" cy="3.341" r="3.341" transform="translate(462.71 224.659)" fill="#ff6584"/>
    <circle id="Elipse_37" data-name="Elipse 37" cx="3.341" cy="3.341" r="3.341" transform="translate(327.151 114.03)" fill="#ff6584"/>
    <circle id="Elipse_38" data-name="Elipse 38" cx="3.341" cy="3.341" r="3.341" transform="translate(327.151 343.857)" fill="#ff6584"/>
    <path id="Caminho_157" data-name="Caminho 157" d="M861.753,605.338A5.994,5.994,0,0,0,856,609.685a5.758,5.758,0,0,0-.234,1.652v9.38q3.494-3.307,6.84-6.77,4.1-4.207,7.986-8.609Z" transform="translate(-323.084 -238.884)" fill="#6c63ff"/>
    <path id="Caminho_158" data-name="Caminho 158" d="M731.912,612.161q-15.089,0-33.077-1.141c-62.025-3.939-142.366-17.633-226.224-38.558S311.4,525.879,254.794,500.216c-27.573-12.5-48.736-24.335-62.9-35.173-14.995-11.473-21.554-21.474-19.5-29.724,4.011-16.071,39.523-19.588,68.608-19.707l.01,2.337c-39.942.164-63.505,6.534-66.35,17.936-3.624,14.522,25.933,37.193,81.091,62.2C312.239,523.694,389.452,549.3,473.178,570.2S637.1,604.758,698.984,608.688c60.44,3.839,97.184-2.289,100.808-16.811,3.009-12.057-16.827-29.819-55.851-50.015l1.074-2.076c28.356,14.674,61.271,35.722,57.045,52.657-2.059,8.25-12.547,14-31.175,17.079C760.267,611.28,747.225,612.161,731.912,612.161Z" transform="translate(-172.03 -196.969)" fill="#8d1dfc"/>
    <circle id="Elipse_39" data-name="Elipse 39" cx="78.297" cy="78.297" r="78.297" transform="translate(478.415 84.359)" fill="#fff"/>
    <path id="Caminho_159" data-name="Caminho 159" d="M864.078,241.748a79.181,79.181,0,1,0,56.274,23.191,79.466,79.466,0,0,0-56.274-23.191Zm0,156.594a76.831,76.831,0,1,1,54.626-22.5,77.128,77.128,0,0,1-54.626,22.5Z" transform="translate(-307.365 -158.558)" fill="#2f2e41"/>
    <path id="Caminho_160" data-name="Caminho 160" d="M797.58,348.95a1.559,1.559,0,0,1-1.525-1.245,76.091,76.091,0,0,1,17.405-64.769,1.558,1.558,0,1,1,2.327,2.073,72.919,72.919,0,0,0-16.679,62.068,1.56,1.56,0,0,1-1.528,1.872Z" transform="translate(-309.579 -167.542)" fill="#2f2e41"/>
    <circle id="Elipse_40" data-name="Elipse 40" cx="49.765" cy="49.765" r="49.765" transform="translate(506.898 135.868)" fill="#8d1dfc"/>
    <path id="Caminho_161" data-name="Caminho 161" d="M862.429,387.936c-3.226-.09-7.241-.2-10.333-2.461a7.936,7.936,0,0,1-3.123-5.926,5.338,5.338,0,0,1,1.815-4.384c1.615-1.365,3.974-1.685,6.516-.938l-2.634-19.248,1.933-.265,3.1,22.628-1.615-.741c-1.872-.859-4.441-1.3-6.038.054a3.43,3.43,0,0,0-1.125,2.825,6,6,0,0,0,2.324,4.418c2.407,1.758,5.607,1.985,9.237,2.086Z" transform="translate(-321.582 -183.515)" fill="#2f2e41"/>
    <rect id="Ret창ngulo_92" data-name="Ret창ngulo 92" width="10.511" height="1.952" transform="translate(513.016 173.124)" fill="#2f2e41"/>
    <rect id="Ret창ngulo_93" data-name="Ret창ngulo 93" width="10.511" height="1.952" transform="translate(546.193 173.124)" fill="#2f2e41"/>
    <path id="Caminho_162" data-name="Caminho 162" d="M874.642,452.908H829.534a6.347,6.347,0,0,0-6.342,6.342v99.979a37.138,37.138,0,0,0,19.913,32.877q2.77-2.477,5.461-5.064,3.494-3.307,6.84-6.77,4.1-4.207,7.985-8.609,3.179-3.576,6.186-7.292,1.344-1.648,2.649-3.334c20.871-26.823,35.5-59.256,38.408-92.819a49.9,49.9,0,0,0-35.993-15.309Z" transform="translate(-315.889 -205.208)" fill="#3c3c42"/>
    <path id="Caminho_163" data-name="Caminho 163" d="M868.24,478.766a11.383,11.383,0,0,0-8.126-3.249,11.269,11.269,0,0,0-7.136,2.618,10.214,10.214,0,0,0-.911.834l-36.92,37.863-26.777,27.462a5.3,5.3,0,0,0-1,1.4,5.683,5.683,0,0,0-.6,2.586,5.584,5.584,0,0,0,1.7,3.95l1.052,1.028,7.635,7.44.008-.008a5.68,5.68,0,0,0,3.63,1.27,5.584,5.584,0,0,0,3.95-1.7L805.984,559l8.866-9.092.3-.3,53.3-54.66a11.446,11.446,0,0,0-.2-16.181Z" transform="translate(-307.843 -210.203)" fill="#8d1dfc"/>
    <path id="Caminho_164" data-name="Caminho 164" d="M879.36,331.281c1.646-3.48-.042-7.2-2.932-9.42-3.643-2.8-8.353-2.338-12.5-1.012-4.536,1.452-8.97,4.064-13.87,3.914a8.672,8.672,0,0,1-7.981-5.67c-2.624-6.73.339-14.253,4.908-19.357a26.7,26.7,0,0,1,20.68-9.026,27,27,0,0,1,21.867,13.168,1.2,1.2,0,0,0,1.6.419,28.734,28.734,0,0,1,22.121-.556,28.272,28.272,0,0,1,17.592,26.872,1.169,1.169,0,0,0,2.337,0,31.079,31.079,0,0,0-8.258-21.668,30.165,30.165,0,0,0-21.477-9.48,30.646,30.646,0,0,0-13.5,2.814l1.6.419A29.37,29.37,0,0,0,872,288.887a28.425,28.425,0,0,0-22.923,5.709c-6,4.7-10.548,11.982-10.265,19.8a14.407,14.407,0,0,0,3.475,9.373c3.007,3.228,7.5,3.786,11.644,2.959,5.512-1.1,10.545-4.725,16.292-4.613a7.956,7.956,0,0,1,5.953,2.684,4.954,4.954,0,0,1,1.166,5.306c-.64,1.352,1.375,2.54,2.018,1.18Z" transform="translate(-319.337 -168.865)" fill="#2f2e41"/>
    <path id="Caminho_165" data-name="Caminho 165" d="M362.165,667.37c-27.734,0-53.518-.951-76.6-2.871-30.171-2.511-54.079-6.547-71.06-11.995-17.978-5.769-27.516-12.985-28.349-21.447-1.623-16.484,30.644-31.728,58-41.613l.794,2.2c-37.564,13.574-57.618,27.49-56.467,39.186,1.466,14.9,36.922,26.318,97.277,31.34,61.8,5.142,143.129,3.32,229.006-5.134s166-22.52,225.613-39.613c58.217-16.692,90.766-34.809,89.3-49.7-1.217-12.367-25.867-22.432-69.409-28.342l.314-2.316c31.638,4.294,69.711,13.059,71.421,30.429.833,8.462-7.115,17.4-23.624,26.562-15.593,8.655-38.255,17.274-67.358,25.618C681.279,636.8,601.007,650.9,514.994,659.362,461.036,664.673,408.85,667.37,362.165,667.37Z" transform="translate(-175.138 -223.8)" fill="#8d1dfc"/>
    <circle id="Elipse_41" data-name="Elipse 41" cx="13.621" cy="13.621" r="13.621" transform="translate(639.599 324.874)" fill="#8d1dfc"/>
    <circle id="Elipse_42" data-name="Elipse 42" cx="13.621" cy="13.621" r="13.621" transform="translate(244.609 0)" fill="#e6e6e6"/>
    <circle id="Elipse_43" data-name="Elipse 43" cx="13.621" cy="13.621" r="13.621" transform="translate(1.538 324.095)" fill="#e6e6e6"/>
    <circle id="Elipse_44" data-name="Elipse 44" cx="8.338" cy="8.338" r="8.338" transform="translate(90.961 76.178)" fill="#ff6584"/>
    <circle id="Elipse_45" data-name="Elipse 45" cx="8.338" cy="8.338" r="8.338" transform="translate(52.007 392.482)" fill="#ff6584"/>
    <circle id="Elipse_46" data-name="Elipse 46" cx="8.338" cy="8.338" r="8.338" transform="translate(620.731 256.144)" fill="#ff6584"/>
    <circle id="Elipse_47" data-name="Elipse 47" cx="13.621" cy="13.621" r="13.621" transform="translate(489.238 452.642)" fill="#e6e6e6"/>
  </g>
</svg>
