<svg xmlns="http://www.w3.org/2000/svg" width="594.086" height="517.456" viewBox="0 0 594.086 517.456">
  <g id="art" transform="translate(0 0)">
    <path id="Caminho_166" data-name="Caminho 166" d="M710.381,348.878a247.409,247.409,0,0,1-69.045,171.757q-4.013,4.2-8.242,8.2-6.443,6.129-13.32,11.783A247.216,247.216,0,0,1,467.8,596.979q-2.776.063-5.574.063c-44.3,0-100.03-23.664-150.6-56.423q-6.276-4.065-12.44-8.319-2.881-1.97-5.735-4a510.2,510.2,0,0,1-55.4-45.262,359.1,359.1,0,0,1-31.956-34.17c-38.857-47.93-47.427-91.117,7.97-99.995q9.838-1.572,19.1-3.36,13.411-2.577,25.669-5.567,16.512-4.013,31.027-8.7,4.882-1.572,9.541-3.206c45.918-16.128,76.651-37.159,97.571-59.979q5.322-5.794,9.814-11.728a164.88,164.88,0,0,0,12.454-18.943,178.044,178.044,0,0,0,12.859-28.673l.189-.545c16.645-48.014,11.581-92.549,29.944-107.454C540.72,37,638.445,127.746,684.314,234.76q3.468,8.088,6.524,16.275,1.372,3.657,2.647,7.327,3.353,9.566,6.084,19.18,1.048,3.667,2,7.327c.677,2.633,1.327,5.26,1.928,7.886A250.144,250.144,0,0,1,710.381,348.878Z" transform="translate(-174.731 -79.585)" fill="#202024"/>
    <path id="Caminho_167" data-name="Caminho 167" d="M521.523,776.683q-2.776.063-5.574.063c-44.3,0-100.03-23.665-150.6-56.423q-6.276-4.065-12.44-8.319l3.6-21.932,109.11-14.486,54.761,41.874Z" transform="translate(-228.455 -259.29)" fill="#505056"/>
    <path id="Caminho_168" data-name="Caminho 168" d="M594.333,259.635H578.785a1.817,1.817,0,0,0-1.816,1.816v15.555a1.811,1.811,0,0,0,1.816,1.809h15.548a1.815,1.815,0,0,0,1.816-1.809V261.451A1.821,1.821,0,0,0,594.333,259.635Z" transform="translate(-296.013 -133.873)" fill="#fff"/>
    <path id="Caminho_169" data-name="Caminho 169" d="M594.333,297.585H578.785a1.817,1.817,0,0,0-1.816,1.816v15.555a1.811,1.811,0,0,0,1.816,1.809h15.548a1.815,1.815,0,0,0,1.816-1.809V299.4A1.821,1.821,0,0,0,594.333,297.585Z" transform="translate(-296.013 -145.316)" fill="#e6e6e6"/>
    <path id="Caminho_170" data-name="Caminho 170" d="M594.333,335.535H578.785a1.817,1.817,0,0,0-1.816,1.816V352.9a1.812,1.812,0,0,0,1.816,1.816h15.548a1.817,1.817,0,0,0,1.816-1.816V337.351A1.821,1.821,0,0,0,594.333,335.535Z" transform="translate(-296.013 -156.759)" fill="#e6e6e6"/>
    <path id="Caminho_171" data-name="Caminho 171" d="M596.121,374.98a1.828,1.828,0,0,0-1.788-1.495H578.785a1.817,1.817,0,0,0-1.816,1.816v15.548a1.812,1.812,0,0,0,1.816,1.816h15.548a1.817,1.817,0,0,0,1.816-1.816V375.3A1.616,1.616,0,0,0,596.121,374.98Z" transform="translate(-296.013 -168.201)" fill="#e6e6e6"/>
    <path id="Caminho_172" data-name="Caminho 172" d="M595.039,411.575a1.841,1.841,0,0,0-.706-.14H578.785a1.812,1.812,0,0,0-1.816,1.816V428.8a1.808,1.808,0,0,0,1.816,1.816h15.548a1.817,1.817,0,0,0,1.816-1.816V413.251a1.827,1.827,0,0,0-1.111-1.676Z" transform="translate(-296.013 -179.644)" fill="#e6e6e6"/>
    <path id="Caminho_173" data-name="Caminho 173" d="M641.093,259.635H625.545a1.817,1.817,0,0,0-1.816,1.816v15.555a1.811,1.811,0,0,0,1.816,1.809h15.548a1.815,1.815,0,0,0,1.816-1.809V261.451a1.821,1.821,0,0,0-1.816-1.816Z" transform="translate(-310.112 -133.873)" fill="#e6e6e6"/>
    <path id="Caminho_174" data-name="Caminho 174" d="M641.093,297.585H625.545a1.817,1.817,0,0,0-1.816,1.816v15.555a1.811,1.811,0,0,0,1.816,1.809h15.548a1.815,1.815,0,0,0,1.816-1.809V299.4a1.821,1.821,0,0,0-1.816-1.816Z" transform="translate(-310.112 -145.316)" fill="#8d1dfc"/>
    <path id="Caminho_175" data-name="Caminho 175" d="M641.093,335.535H625.545a1.817,1.817,0,0,0-1.816,1.816V352.9a1.812,1.812,0,0,0,1.816,1.816h15.548a1.817,1.817,0,0,0,1.816-1.816V337.351a1.821,1.821,0,0,0-1.816-1.816Z" transform="translate(-310.112 -156.759)" fill="#8d1dfc"/>
    <path id="Caminho_176" data-name="Caminho 176" d="M641.093,373.485H625.545a1.811,1.811,0,0,0-1.718,1.243,1.73,1.73,0,0,0-.1.573v15.548a1.812,1.812,0,0,0,1.816,1.816h15.548a1.817,1.817,0,0,0,1.816-1.816V375.3a1.822,1.822,0,0,0-1.816-1.816Z" transform="translate(-310.112 -168.201)" fill="#8d1dfc"/>
    <path id="Caminho_177" data-name="Caminho 177" d="M641.093,411.435H625.545a1.812,1.812,0,0,0-1.816,1.816V428.8a1.812,1.812,0,0,0,1.816,1.816h15.548a1.817,1.817,0,0,0,1.816-1.816V413.251a1.817,1.817,0,0,0-1.816-1.816Z" transform="translate(-310.112 -179.644)" fill="#e6e6e6"/>
    <path id="Caminho_178" data-name="Caminho 178" d="M687.853,259.635H672.305a1.817,1.817,0,0,0-1.816,1.816v15.555a1.811,1.811,0,0,0,1.816,1.809h15.548a1.815,1.815,0,0,0,1.816-1.809V261.451A1.821,1.821,0,0,0,687.853,259.635Z" transform="translate(-324.211 -133.873)" fill="#8d1dfc"/>
    <path id="Caminho_179" data-name="Caminho 179" d="M687.853,297.585H672.305a1.817,1.817,0,0,0-1.816,1.816v15.555a1.811,1.811,0,0,0,1.816,1.809h15.548a1.815,1.815,0,0,0,1.816-1.809V299.4a1.821,1.821,0,0,0-1.816-1.816Z" transform="translate(-324.211 -145.316)" fill="#8d1dfc"/>
    <path id="Caminho_180" data-name="Caminho 180" d="M687.853,335.535H672.305a1.817,1.817,0,0,0-1.816,1.816V352.9a1.812,1.812,0,0,0,1.816,1.816h15.548a1.817,1.817,0,0,0,1.816-1.816V337.351A1.821,1.821,0,0,0,687.853,335.535Z" transform="translate(-324.211 -156.759)" fill="#e6e6e6"/>
    <path id="Caminho_181" data-name="Caminho 181" d="M687.853,373.485H672.305a1.817,1.817,0,0,0-1.816,1.816v15.548a1.812,1.812,0,0,0,1.816,1.816h15.548a1.817,1.817,0,0,0,1.816-1.816V375.3A1.821,1.821,0,0,0,687.853,373.485Z" transform="translate(-324.211 -168.201)" fill="#8d1dfc"/>
    <path id="Caminho_182" data-name="Caminho 182" d="M687.853,411.435H672.305a1.812,1.812,0,0,0-1.816,1.816V428.8a1.812,1.812,0,0,0,1.816,1.816h15.548a1.817,1.817,0,0,0,1.816-1.816V413.251a1.817,1.817,0,0,0-1.816-1.816Z" transform="translate(-324.211 -179.644)" fill="#8d1dfc"/>
    <path id="Caminho_183" data-name="Caminho 183" d="M734.613,259.635H719.065a1.817,1.817,0,0,0-1.816,1.816v15.555a1.811,1.811,0,0,0,1.816,1.809h15.548a1.816,1.816,0,0,0,1.816-1.809V261.451A1.821,1.821,0,0,0,734.613,259.635Z" transform="translate(-338.31 -133.873)" fill="#8d1dfc"/>
    <path id="Caminho_184" data-name="Caminho 184" d="M734.613,297.585H719.065a1.817,1.817,0,0,0-1.816,1.816v15.555a1.811,1.811,0,0,0,1.816,1.809h15.548a1.815,1.815,0,0,0,1.816-1.809V299.4A1.821,1.821,0,0,0,734.613,297.585Z" transform="translate(-338.31 -145.316)" fill="#fff"/>
    <path id="Caminho_185" data-name="Caminho 185" d="M734.613,335.535H719.065a1.817,1.817,0,0,0-1.816,1.816V352.9a1.812,1.812,0,0,0,1.816,1.816h15.548a1.817,1.817,0,0,0,1.816-1.816V337.351A1.821,1.821,0,0,0,734.613,335.535Z" transform="translate(-338.31 -156.759)" fill="#fff"/>
    <path id="Caminho_186" data-name="Caminho 186" d="M734.613,373.485H719.065a1.817,1.817,0,0,0-1.816,1.816v15.548a1.812,1.812,0,0,0,1.816,1.816h15.548a1.817,1.817,0,0,0,1.816-1.816V375.3A1.822,1.822,0,0,0,734.613,373.485Z" transform="translate(-338.31 -168.201)" fill="#e6e6e6"/>
    <path id="Caminho_187" data-name="Caminho 187" d="M734.613,411.435H719.065a1.813,1.813,0,0,0-1.816,1.816V428.8a1.813,1.813,0,0,0,1.816,1.816h15.548a1.817,1.817,0,0,0,1.816-1.816V413.251a1.817,1.817,0,0,0-1.816-1.816Z" transform="translate(-338.31 -179.644)" fill="#8d1dfc"/>
    <path id="Caminho_188" data-name="Caminho 188" d="M781.373,259.635H765.818a1.815,1.815,0,0,0-1.809,1.816v15.555a1.809,1.809,0,0,0,1.809,1.809h15.555a1.816,1.816,0,0,0,1.816-1.809V261.451a1.821,1.821,0,0,0-1.816-1.816Z" transform="translate(-352.409 -133.873)" fill="#fff"/>
    <path id="Caminho_189" data-name="Caminho 189" d="M781.373,297.585H765.818a1.815,1.815,0,0,0-1.809,1.816v15.555a1.809,1.809,0,0,0,1.809,1.809h15.556a1.815,1.815,0,0,0,1.816-1.809V299.4A1.821,1.821,0,0,0,781.373,297.585Z" transform="translate(-352.409 -145.316)" fill="#fff"/>
    <path id="Caminho_190" data-name="Caminho 190" d="M781.373,335.535H765.818a1.815,1.815,0,0,0-1.809,1.816V352.9a1.811,1.811,0,0,0,1.809,1.816h15.555a1.817,1.817,0,0,0,1.816-1.816V337.351A1.821,1.821,0,0,0,781.373,335.535Z" transform="translate(-352.409 -156.759)" fill="#fff"/>
    <path id="Caminho_191" data-name="Caminho 191" d="M781.373,373.485H765.818a1.816,1.816,0,0,0-1.809,1.816v15.548a1.811,1.811,0,0,0,1.809,1.816h15.555a1.817,1.817,0,0,0,1.816-1.816V375.3A1.822,1.822,0,0,0,781.373,373.485Z" transform="translate(-352.409 -168.201)" fill="#8d1dfc"/>
    <path id="Caminho_192" data-name="Caminho 192" d="M781.373,411.435H765.818a1.811,1.811,0,0,0-1.809,1.816V428.8a1.811,1.811,0,0,0,1.809,1.816h15.555a1.817,1.817,0,0,0,1.816-1.816V413.251a1.817,1.817,0,0,0-1.816-1.816Z" transform="translate(-352.409 -179.644)" fill="#e6e6e6"/>
    <path id="Caminho_193" data-name="Caminho 193" d="M828.133,259.635H812.578a1.815,1.815,0,0,0-1.809,1.816v15.555a1.809,1.809,0,0,0,1.809,1.809h15.556a1.816,1.816,0,0,0,1.816-1.809V261.451A1.821,1.821,0,0,0,828.133,259.635Z" transform="translate(-366.508 -133.873)" fill="#fff"/>
    <path id="Caminho_194" data-name="Caminho 194" d="M828.133,297.585H812.578a1.815,1.815,0,0,0-1.809,1.816v15.555a1.809,1.809,0,0,0,1.809,1.809h15.556a1.815,1.815,0,0,0,1.816-1.809V299.4A1.821,1.821,0,0,0,828.133,297.585Z" transform="translate(-366.508 -145.316)" fill="#fff"/>
    <path id="Caminho_195" data-name="Caminho 195" d="M828.133,335.535H812.578a1.815,1.815,0,0,0-1.809,1.816V352.9a1.811,1.811,0,0,0,1.809,1.816h15.555a1.817,1.817,0,0,0,1.816-1.816V337.351a1.821,1.821,0,0,0-1.816-1.816Z" transform="translate(-366.508 -156.759)" fill="#8d1dfc"/>
    <path id="Caminho_196" data-name="Caminho 196" d="M828.133,373.485H812.578a1.816,1.816,0,0,0-1.809,1.816v15.548a1.811,1.811,0,0,0,1.809,1.816h15.555a1.817,1.817,0,0,0,1.816-1.816V375.3a1.822,1.822,0,0,0-1.816-1.816Z" transform="translate(-366.508 -168.201)" fill="#e6e6e6"/>
    <path id="Caminho_197" data-name="Caminho 197" d="M828.133,411.435H812.578a1.811,1.811,0,0,0-1.809,1.816V428.8a1.811,1.811,0,0,0,1.809,1.816h15.555a1.817,1.817,0,0,0,1.816-1.816V413.251a1.817,1.817,0,0,0-1.816-1.816Z" transform="translate(-366.508 -179.644)" fill="#fff"/>
    <path id="Caminho_198" data-name="Caminho 198" d="M874.893,259.635H859.338a1.815,1.815,0,0,0-1.809,1.816v15.555a1.809,1.809,0,0,0,1.809,1.809h15.556a1.816,1.816,0,0,0,1.816-1.809V261.451A1.822,1.822,0,0,0,874.893,259.635Z" transform="translate(-380.607 -133.873)" fill="#8d1dfc"/>
    <path id="Caminho_199" data-name="Caminho 199" d="M874.893,297.585H859.338a1.815,1.815,0,0,0-1.809,1.816v15.555a1.809,1.809,0,0,0,1.809,1.809h15.556a1.816,1.816,0,0,0,1.816-1.809V299.4A1.822,1.822,0,0,0,874.893,297.585Z" transform="translate(-380.607 -145.316)" fill="#8d1dfc"/>
    <path id="Caminho_200" data-name="Caminho 200" d="M874.893,335.535H859.338a1.815,1.815,0,0,0-1.809,1.816V352.9a1.811,1.811,0,0,0,1.809,1.816h15.555a1.817,1.817,0,0,0,1.816-1.816V337.351a1.821,1.821,0,0,0-1.816-1.816Z" transform="translate(-380.607 -156.759)" fill="#e6e6e6"/>
    <path id="Caminho_201" data-name="Caminho 201" d="M874.893,373.485H859.338a1.816,1.816,0,0,0-1.809,1.816v15.548a1.811,1.811,0,0,0,1.809,1.816h15.555a1.817,1.817,0,0,0,1.816-1.816V375.3a1.821,1.821,0,0,0-1.816-1.816Z" transform="translate(-380.607 -168.201)" fill="#fff"/>
    <path id="Caminho_202" data-name="Caminho 202" d="M874.893,411.435H859.338a1.811,1.811,0,0,0-1.809,1.816V428.8a1.811,1.811,0,0,0,1.809,1.816h15.555a1.817,1.817,0,0,0,1.816-1.816V413.251a1.817,1.817,0,0,0-1.816-1.816Z" transform="translate(-380.607 -179.644)" fill="#8d1dfc"/>
    <path id="Caminho_203" data-name="Caminho 203" d="M921.653,259.635H906.1a1.815,1.815,0,0,0-1.809,1.816v15.555a1.809,1.809,0,0,0,1.809,1.809h15.555a1.815,1.815,0,0,0,1.816-1.809V261.451A1.821,1.821,0,0,0,921.653,259.635Z" transform="translate(-394.706 -133.873)" fill="#8d1dfc"/>
    <path id="Caminho_204" data-name="Caminho 204" d="M921.653,297.585H906.1a1.815,1.815,0,0,0-1.809,1.816v15.555a1.809,1.809,0,0,0,1.809,1.809h15.556a1.815,1.815,0,0,0,1.816-1.809V299.4A1.821,1.821,0,0,0,921.653,297.585Z" transform="translate(-394.706 -145.316)" fill="#8d1dfc"/>
    <path id="Caminho_205" data-name="Caminho 205" d="M921.653,335.535H906.1a1.815,1.815,0,0,0-1.809,1.816V352.9a1.811,1.811,0,0,0,1.809,1.816h15.555a1.817,1.817,0,0,0,1.816-1.816V337.351a1.821,1.821,0,0,0-1.816-1.816Z" transform="translate(-394.706 -156.759)" fill="#e6e6e6"/>
    <path id="Caminho_206" data-name="Caminho 206" d="M921.653,373.485H906.1a1.816,1.816,0,0,0-1.809,1.816v15.548a1.811,1.811,0,0,0,1.809,1.816h15.555a1.817,1.817,0,0,0,1.816-1.816V375.3A1.821,1.821,0,0,0,921.653,373.485Z" transform="translate(-394.706 -168.201)" fill="#8d1dfc"/>
    <path id="Caminho_207" data-name="Caminho 207" d="M921.653,411.435H906.1a1.811,1.811,0,0,0-1.809,1.816V428.8a1.811,1.811,0,0,0,1.809,1.816h15.555a1.817,1.817,0,0,0,1.816-1.816V413.251a1.817,1.817,0,0,0-1.816-1.816Z" transform="translate(-394.706 -179.644)" fill="#8d1dfc"/>
    <path id="Caminho_208" data-name="Caminho 208" d="M968.413,259.635H952.858a1.815,1.815,0,0,0-1.809,1.816v15.555a1.809,1.809,0,0,0,1.809,1.809h15.555a1.815,1.815,0,0,0,1.816-1.809V261.451A1.821,1.821,0,0,0,968.413,259.635Z" transform="translate(-408.805 -133.873)" fill="#e6e6e6"/>
    <path id="Caminho_209" data-name="Caminho 209" d="M968.413,297.585H952.858a1.815,1.815,0,0,0-1.809,1.816v15.555a1.809,1.809,0,0,0,1.809,1.809h15.556a1.815,1.815,0,0,0,1.816-1.809V299.4A1.821,1.821,0,0,0,968.413,297.585Z" transform="translate(-408.805 -145.316)" fill="#8d1dfc"/>
    <path id="Caminho_210" data-name="Caminho 210" d="M968.413,335.535H952.858a1.815,1.815,0,0,0-1.809,1.816V352.9a1.811,1.811,0,0,0,1.809,1.816h15.555a1.817,1.817,0,0,0,1.816-1.816V337.351A1.822,1.822,0,0,0,968.413,335.535Z" transform="translate(-408.805 -156.759)" fill="#8d1dfc"/>
    <path id="Caminho_211" data-name="Caminho 211" d="M968.413,373.485H952.858a1.816,1.816,0,0,0-1.809,1.816v15.548a1.811,1.811,0,0,0,1.809,1.816h15.555a1.817,1.817,0,0,0,1.816-1.816V375.3A1.821,1.821,0,0,0,968.413,373.485Z" transform="translate(-408.805 -168.201)" fill="#8d1dfc"/>
    <path id="Caminho_212" data-name="Caminho 212" d="M968.413,411.435H952.858a1.811,1.811,0,0,0-1.809,1.816V428.8a1.811,1.811,0,0,0,1.809,1.816h15.555a1.817,1.817,0,0,0,1.816-1.816V413.251a1.817,1.817,0,0,0-1.816-1.816Z" transform="translate(-408.805 -179.644)" fill="#e6e6e6"/>
    <path id="Caminho_213" data-name="Caminho 213" d="M1015.174,259.635H999.619a1.815,1.815,0,0,0-1.809,1.816v15.555a1.809,1.809,0,0,0,1.809,1.809h15.556a1.815,1.815,0,0,0,1.816-1.809V261.451A1.821,1.821,0,0,0,1015.174,259.635Z" transform="translate(-422.904 -133.873)" fill="#e6e6e6"/>
    <path id="Caminho_214" data-name="Caminho 214" d="M1015.174,297.585H999.619a1.815,1.815,0,0,0-1.809,1.816v15.555a1.809,1.809,0,0,0,1.809,1.809h15.556a1.816,1.816,0,0,0,1.816-1.809V299.4a1.821,1.821,0,0,0-1.816-1.816Z" transform="translate(-422.904 -145.316)" fill="#e6e6e6"/>
    <path id="Caminho_215" data-name="Caminho 215" d="M1015.174,335.535H999.619a1.815,1.815,0,0,0-1.809,1.816V352.9a1.811,1.811,0,0,0,1.809,1.816h15.555a1.817,1.817,0,0,0,1.816-1.816V337.351A1.821,1.821,0,0,0,1015.174,335.535Z" transform="translate(-422.904 -156.759)" fill="#8d1dfc"/>
    <path id="Caminho_216" data-name="Caminho 216" d="M1015.174,373.485H999.619a1.816,1.816,0,0,0-1.809,1.816v15.548a1.811,1.811,0,0,0,1.809,1.816h15.555a1.817,1.817,0,0,0,1.816-1.816V375.3a1.822,1.822,0,0,0-1.816-1.816Z" transform="translate(-422.904 -168.201)" fill="#e6e6e6"/>
    <path id="Caminho_217" data-name="Caminho 217" d="M1015.174,411.435H999.619a1.811,1.811,0,0,0-1.809,1.816V428.8a1.811,1.811,0,0,0,1.809,1.816h15.555a1.817,1.817,0,0,0,1.816-1.816V413.251a1.817,1.817,0,0,0-1.816-1.816Z" transform="translate(-422.904 -179.644)" fill="#e6e6e6"/>
    <path id="Caminho_218" data-name="Caminho 218" d="M335.908,660.03h-.433l.37-.049Z" transform="translate(-101.152 -198.996)" fill="#2f2e41"/>
    <circle id="ab6171fa-7d69-4734-b81c-8dff60f9761b" cx="47.722" cy="47.722" r="47.722" transform="translate(149.819 75.723)" fill="#ffb6b6"/>
    <path id="bf427902-b9bf-4946-b5d7-5c1c7e04535e" d="M474.989,190.369s12.481-23.861-14.978-26.03c0,0-23.41-21.235-47.27-3.882,0,0-13.015,0-20.132,14.728,0,0-10.236-3.882-12.486,6.507,0,0-7.49,21.692,0,41.214S390.1,244.6,390.1,244.6s-12.308-40.93,17.651-43.1,63.483-20.891,65.979,2.97,6.254,29.74,6.254,29.74S503.7,200.131,474.989,190.369Z" transform="translate(-235.656 -101.913)" fill="#2f2e41"/>
    <path id="Caminho_219" data-name="Caminho 219" d="M544.954,401.873l-.154.81-1.725,9.108-11.923,63-.705,3.709-1.481,7.844-2.026,10.7-4.491,23.714-1.285,6.8-.482,2.549-.168.894-1.334,7.034-.405,2.123-3.255,24.119-2.843,21.017,9.513,9.513-5.672,5.672L512.8,621.8l.007.049H360.862q-9.22-5.972-18.174-12.314l1.25-9.36s4.3-16.715,2.493-18.712-5.755-5.567-5.755-5.567l4.98-11.623.691-1.613-1.159-24.049-.028-.58-.384-7.928-.049-1.02-.077-1.53-1.474-30.51-.028-.5L342.7,487.3l-.419-8.794-.182-3.709-1.8-37.11-1.215-25.2-1.062-21.939L342.3,389.1l45.646-15.513L406.85,349l39.353.293,19.264.147,32.144,29.811,7.313,3.492.056.028,5.246,2.508,13.3,6.349,14.061,6.719L544.8,401.8Z" transform="translate(-223.968 -160.82)" fill="#e6e6e6"/>
    <path id="Caminho_220" data-name="Caminho 220" d="M399.45,613.18a21.154,21.154,0,0,1-28.4-15.667l-74.43-10.56,25.874-29.268L389.2,572.2a21.269,21.269,0,0,1,10.246,40.98Z" transform="translate(-211.482 -223.741)" fill="#ffb6b6"/>
    <path id="Caminho_221" data-name="Caminho 221" d="M347.469,509.385a9.445,9.445,0,0,0-5.511-3.4l-30.538-6.349-3.136-.65a13.224,13.224,0,0,1-8.752-6.335,13.383,13.383,0,0,1-1.711-5.518,13.2,13.2,0,0,1,.622-5.225l10.582-31.886,6.866-20.689a29.192,29.192,0,0,0,1.46-7.718,30.278,30.278,0,0,0-6.335-20.179,29.82,29.82,0,0,0-34.233-9.527c-.175.063-.356.133-.531.2a29.744,29.744,0,0,0-17.679,19.844l-7.46,27.136-15.388,55.941a40.349,40.349,0,0,0,34.2,50.766l43.983,5.155,20.354,2.389a9.427,9.427,0,0,0,10.365-7.495,3.43,3.43,0,0,0,.077-.384l.489-3.017,4.142-25.411.042-.258a9.412,9.412,0,0,0-1.907-7.39Z" transform="translate(-192.687 -173.157)" fill="#e6e6e6"/>
    <path id="Caminho_222" data-name="Caminho 222" d="M504.55,609.9a21.154,21.154,0,0,0,25.91-19.516l72.2-20.95-29.742-25.326-64,23.777A21.269,21.269,0,0,0,504.55,609.9Z" transform="translate(-269.174 -219.648)" fill="#ffb6b6"/>
    <path id="Caminho_223" data-name="Caminho 223" d="M656.053,471.37l-34.337-79.026a29.908,29.908,0,0,0-14.158-14.913,30.283,30.283,0,0,0-6.133-2.235c-.328-.084-.657-.161-.985-.224a29.428,29.428,0,0,0-13.606.252,29.9,29.9,0,0,0-19.1,15.178.694.694,0,0,0-.056.1,30.1,30.1,0,0,0-.259,27.136l.426.852,24.265,48.733a13.2,13.2,0,0,1-7.334,18.293l-1.7.615L552.426,497.2a9.427,9.427,0,0,0-5.818,11.728l.077.245,8.591,27.492c.042.126.084.252.133.377a4.932,4.932,0,0,0,.279.692,9.417,9.417,0,0,0,11.043,5.26l16.54-4.366,3.374-.894,42.712-11.28a40.345,40.345,0,0,0,26.7-55.082Z" transform="translate(-286.725 -168.446)" fill="#e6e6e6"/>
    <path id="Caminho_224" data-name="Caminho 224" d="M219.629,608.285a359.1,359.1,0,0,0,31.956,34.17H567.277a11.487,11.487,0,0,1,11.469,11.476l.454,80a248.259,248.259,0,0,0,54.111-33.9q6.873-5.647,13.32-11.783,4.222-4,8.242-8.2a248.4,248.4,0,0,0,48.069-71.762Z" transform="translate(-188.269 -238.998)" fill="#3c3c42"/>
    <path id="Caminho_225" data-name="Caminho 225" d="M810.192,711.025q-4.013,4.2-8.242,8.2h-67.2v-8.2Z" transform="translate(-343.587 -269.976)" fill="#fff"/>
    <path id="Caminho_226" data-name="Caminho 226" d="M531.391,334.661a3.868,3.868,0,0,0-3.4-2.026H299a3.88,3.88,0,0,0-3.87,3.876V473.568H531.865V336.512A3.762,3.762,0,0,0,531.391,334.661Z" transform="translate(-211.033 -155.884)" fill="#3c3c42"/>
    <path id="Caminho_227" data-name="Caminho 227" d="M294.832,529.092v16.913a5.339,5.339,0,0,0,5.339,5.339h87.378v33.378h-1.161a.693.693,0,0,0-.694.694v2.321a.694.694,0,0,0,.694.694h54.243a.694.694,0,0,0,.694-.694v-2.321a.694.694,0,0,0-.694-.694h-1.161V551.344h87.378a5.339,5.339,0,0,0,5.339-5.339V529.092Z" transform="translate(-210.944 -215.12)" fill="#3c3c42"/>
    <circle id="Elipse_48" data-name="Elipse 48" cx="21.867" cy="21.867" r="21.867" transform="translate(177.831 221.697)" fill="#8d1dfc"/>
    <path id="Caminho_228" data-name="Caminho 228" d="M490.045,229.414h-3.492c0-26.4-26.13-43.7-52.491-43.718a57.545,57.545,0,0,0-11.42,1.111c-4.233.845-8.626,1.858-12.943,3.178-17.022,5.218-32.808,15.3-32.808,39.429a54.894,54.894,0,0,0,1.774,13.886l-3.381.88a58.583,58.583,0,0,1-1.886-14.766c0-21.08,8.654-35.56,23.6-44.193,7.858-4.54,17.448-7.467,28.435-8.892a67.846,67.846,0,0,1,13.795-.419C469.545,178.089,490.045,201.335,490.045,229.414Z" transform="translate(-234.633 -108.577)" fill="#8d1dfc"/>
    <path id="Caminho_229" data-name="Caminho 229" d="M539.97,246.816l-1.376-10.17a11.115,11.115,0,0,0-12.747-9.471l-2.186.3a4.6,4.6,0,0,0-3.939,5.169L522.9,256.07a4.594,4.594,0,0,0,3.7,3.891,4.3,4.3,0,0,0,.852.084,4.538,4.538,0,0,0,.614-.042l2.445-.328a11.03,11.03,0,0,0,7.5-4.491c.189-.265.37-.538.538-.817A11.7,11.7,0,0,0,539.97,246.816Z" transform="translate(-278.739 -124.044)" fill="#8d1dfc"/>
    <path id="Caminho_230" data-name="Caminho 230" d="M522.249,228.275a4.492,4.492,0,0,0-1.627,1.341,4.574,4.574,0,0,0-.9,3.4l3.178,23.427a4.594,4.594,0,0,0,3.7,3.891Z" transform="translate(-278.739 -124.418)" fill="#fff"/>
    <path id="Caminho_231" data-name="Caminho 231" d="M546.627,248.082l-1.376-10.17a10.973,10.973,0,0,0-3.492-6.677l3.164,23.308a4.313,4.313,0,0,0,.286,1.09,11.7,11.7,0,0,0,1.418-7.551Z" transform="translate(-285.397 -125.31)" fill="#3f3d56"/>
    <ellipse id="Elipse_49" data-name="Elipse 49" cx="1.746" cy="4.889" rx="1.746" ry="4.889" transform="translate(247.31 120.643) rotate(-7.726)" fill="#3f3d56"/>
    <ellipse id="Elipse_50" data-name="Elipse 50" cx="1.746" cy="4.889" rx="1.746" ry="4.889" transform="translate(245.214 108.07) rotate(-7.726)" fill="#3f3d56"/>
    <ellipse id="Elipse_51" data-name="Elipse 51" cx="1.746" cy="4.889" rx="1.746" ry="4.889" transform="translate(258.485 112.959) rotate(-7.726)" fill="#3f3d56"/>
    <path id="Caminho_232" data-name="Caminho 232" d="M444.25,185.7a57.543,57.543,0,0,0-11.42,1.111c-4.233.845-8.626,1.858-12.943,3.178-6.74-.328-11.7-2.074-12.7-4.764,7.858-4.54,17.448-7.467,28.435-8.892a67.846,67.846,0,0,1,13.8-.419,4,4,0,0,1,1.9,2.668C451.647,181.009,448.874,183.593,444.25,185.7Z" transform="translate(-244.821 -108.577)" fill="#3f3d56"/>
    <path id="Caminho_233" data-name="Caminho 233" d="M387.555,276.237l-5.378-22.358a4.207,4.207,0,0,0-3.409-3.178,4.7,4.7,0,0,0-.7-.056,4.209,4.209,0,0,0-.978.119l-2.082.5a10.41,10.41,0,0,0-7.676,12.545l2.41,10.03a11.067,11.067,0,0,0,3.73,6.021,9.811,9.811,0,0,0,.95.678,10.344,10.344,0,0,0,7.942,1.285l2.075-.5a4.079,4.079,0,0,0,1.516-.705,4.186,4.186,0,0,0,1.6-4.379Z" transform="translate(-232.717 -131.163)" fill="#8d1dfc"/>
    <ellipse id="Elipse_52" data-name="Elipse 52" cx="1.746" cy="4.889" rx="1.746" ry="4.889" transform="translate(139.578 131.817) rotate(-13.53)" fill="#3f3d56"/>
    <ellipse id="Elipse_53" data-name="Elipse 53" cx="1.746" cy="4.889" rx="1.746" ry="4.889" transform="translate(132.593 133.913) rotate(-13.53)" fill="#3f3d56"/>
    <path id="Caminho_234" data-name="Caminho 234" d="M392.982,276.03,387.6,253.672a4.562,4.562,0,0,0-3.7-3.437l7.341,30.538A4.548,4.548,0,0,0,392.982,276.03Z" transform="translate(-237.802 -131.039)" fill="#fff"/>
    <path id="Caminho_235" data-name="Caminho 235" d="M368.548,262.416a4.524,4.524,0,0,0-.817-1.711,10.285,10.285,0,0,0-.4,6.14l2.41,10.03a11.068,11.068,0,0,0,3.73,6.021Z" transform="translate(-232.716 -134.196)" fill="#3f3d56"/>
  </g>
</svg>
