<svg xmlns="http://www.w3.org/2000/svg" width="751.202" height="667.592" viewBox="0 0 751.202 667.592">
  <g id="building" transform="translate(0.035)">
    <path id="Caminho_5" data-name="Caminho 5" d="M310.592,784.515l-.654-.243A80.529,80.529,0,0,1,262.5,735.959a78.137,78.137,0,0,1-4.059-19.173l-.053-.624.616.11c7.354,1.32,15.073,2.049,18.513,2.334l-19.3-12.769.035-.663a15.272,15.272,0,0,1,10.261-13.7,15.534,15.534,0,0,1,16.9,4.154c1.918,2.082,3.947,4.178,5.908,6.205C298.061,708.8,305.03,716,309.437,724.5a48.675,48.675,0,0,1,.979,41.89Z" transform="translate(-224.434 -117.485)" fill="#29292e"/>
    <path id="Caminho_6" data-name="Caminho 6" d="M701.029,772.142l-.008-.069A205.077,205.077,0,0,0,690.7,716.421l-.006-.03a11.666,11.666,0,0,1,.3-5.55,10.96,10.96,0,0,1,12.219-7.426,23.516,23.516,0,0,0,16.108-2.75,11.46,11.46,0,0,1,10.144-.671,10.622,10.622,0,0,1,6.278,7.191c.065.256.123.515.172.778a163.536,163.536,0,0,0,10.328,55.7v.023a11.683,11.683,0,0,1-2.988,10.2,10.849,10.849,0,0,1-8.689,3.193c-5.794-.4-11.754.78-18.218,3.595a10.526,10.526,0,0,1-7.174.5,11.59,11.59,0,0,1-8.141-9.035Z" transform="translate(-224.434 -115.485)" fill="#8d1dfc"/>
    <path id="Caminho_7" data-name="Caminho 7" d="M515.807,511.985v248.7h174.23v-248.7a8.361,8.361,0,0,0-5.893-8,7.7,7.7,0,0,0-2.5-.388H524.221A8.4,8.4,0,0,0,515.807,511.985ZM583.8,597.439a18.6,18.6,0,0,1,37.2,0V626.3a18.6,18.6,0,0,1-37.2,0Z" transform="translate(-224.434 -115.485)" fill="#202024"/>
    <path id="Caminho_8" data-name="Caminho 8" d="M515.273,752.731v23.982a4.719,4.719,0,0,0,4.68,4.7H685.891a4.7,4.7,0,0,0,4.68-4.7V752.731Z" transform="translate(-224.434 -115.485)" fill="#29292e"/>
    <path id="Caminho_9" data-name="Caminho 9" d="M241.717,137.285V591.377A21.842,21.842,0,0,0,263.541,613.2H936.458a21.841,21.841,0,0,0,21.824-21.824V137.285a21.852,21.852,0,0,0-21.824-21.8H263.542A21.852,21.852,0,0,0,241.717,137.285Z" transform="translate(-224.434 -115.485)" fill="#202024"/>
    <path id="Caminho_10" data-name="Caminho 10" d="M930.845,131.247H269.155a11.689,11.689,0,0,0-11.664,11.688v442.84a11.684,11.684,0,0,0,11.664,11.664h661.69a11.684,11.684,0,0,0,11.664-11.664V142.935a11.689,11.689,0,0,0-11.661-11.688ZM763.931,445.865a11.59,11.59,0,0,1-10.368,6.356h-.069q-9.515-1.326-19.1-1.748a11.532,11.532,0,0,1,2.587,2.558,10.849,10.849,0,0,1,1.554,9.126c-1.445,5.625-1.377,11.7.211,18.568a10.526,10.526,0,0,1-.814,7.145,11.589,11.589,0,0,1-10.368,6.356H727.5A205.072,205.072,0,0,0,681.768,493c-.06.384-.136.769-.235,1.154-1.445,5.625-1.377,11.7.211,18.568a10.526,10.526,0,0,1-.813,7.145,11.59,11.59,0,0,1-10.368,6.356h-.069a205.068,205.068,0,0,0-46.955-1.106,43.727,43.727,0,0,0,1.206,11.61,10.525,10.525,0,0,1-.813,7.145,11.589,11.589,0,0,1-10.368,6.356H613.5a205.079,205.079,0,0,0-56.6,0h-.03a11.666,11.666,0,0,1-5.4-1.3,10.96,10.96,0,0,1-5.072-13.368,28.331,28.331,0,0,0,1.26-4.937,205.074,205.074,0,0,0-51.754.609h-.03a11.666,11.666,0,0,1-5.4-1.3,10.96,10.96,0,0,1-5.072-13.368,23.516,23.516,0,0,0,.234-16.339,11.456,11.456,0,0,1,0-7.684,205.076,205.076,0,0,0-38.728,1.7h-.03a11.666,11.666,0,0,1-5.4-1.3,10.96,10.96,0,0,1-5.072-13.368,23.516,23.516,0,0,0,.234-16.339,11.46,11.46,0,0,1,1.19-10.1,10.622,10.622,0,0,1,8.216-4.861c.264-.018.528-.027.8-.027a165.154,165.154,0,0,0,19.869,2.244,11,11,0,0,1-4.306-12.921,23.516,23.516,0,0,0,.234-16.339,11.46,11.46,0,0,1,1.19-10.1c.084-.129.183-.244.271-.368q-7.112.491-14.19,1.476h-.03a11.665,11.665,0,0,1-5.4-1.3,10.96,10.96,0,0,1-5.072-13.368,23.516,23.516,0,0,0,.234-16.339,11.46,11.46,0,0,1,1.19-10.1,10.622,10.622,0,0,1,8.216-4.861c.264-.018.528-.027.8-.027a164.8,164.8,0,0,0,23.914,2.407,11.156,11.156,0,0,1-1.35-10.084,23.516,23.516,0,0,0,.234-16.339,11.46,11.46,0,0,1,1.19-10.1,10.622,10.622,0,0,1,8.216-4.861c.264-.018.528-.027.8-.027a165.11,165.11,0,0,0,20.22,2.264,11.178,11.178,0,0,1-.656-8.94,23.516,23.516,0,0,0,.234-16.339,11.46,11.46,0,0,1,1.19-10.1,10.622,10.622,0,0,1,8.216-4.861c.264-.018.528-.027.8-.027a164.818,164.818,0,0,0,23.812,2.4,11.188,11.188,0,0,1-.248-8.081,23.516,23.516,0,0,0,.234-16.339,11.46,11.46,0,0,1,1.19-10.1,10.622,10.622,0,0,1,8.216-4.861c.264-.018.528-.027.8-.027a163.534,163.534,0,0,0,56.654.007h.023a10.864,10.864,0,0,0,4.385,0h.023a163.534,163.534,0,0,0,56.654-.007c.268,0,.532.009.8.027a10.622,10.622,0,0,1,8.216,4.861,11.46,11.46,0,0,1,1.19,10.1,23.516,23.516,0,0,0,.2,16.328,11.188,11.188,0,0,1-.248,8.081,164.809,164.809,0,0,0,23.812-2.4c.268,0,.532.009.8.027a10.622,10.622,0,0,1,8.216,4.861,11.46,11.46,0,0,1,1.19,10.1,23.516,23.516,0,0,0,.23,16.331,11.178,11.178,0,0,1-.656,8.94,165.127,165.127,0,0,0,20.22-2.264c.268,0,.532.009.8.027a10.622,10.622,0,0,1,8.216,4.861,11.46,11.46,0,0,1,1.19,10.1,23.516,23.516,0,0,0,.23,16.336,11.156,11.156,0,0,1-1.365,10.106,11.524,11.524,0,0,1,2.345,2.376,10.85,10.85,0,0,1,1.554,9.125c-1.445,5.625-1.377,11.7.211,18.568a10.526,10.526,0,0,1-.813,7.145,11.755,11.755,0,0,1-1.463,2.2q7.022-.617,14.008-1.841h.023a11.683,11.683,0,0,1,9.479,4.8,10.849,10.849,0,0,1,1.554,9.125c-1.445,5.625-1.377,11.7.211,18.568A10.526,10.526,0,0,1,763.931,445.865Z" transform="translate(-224.434 -115.485)" fill="#121214"/>
    <path id="Caminho_11" data-name="Caminho 11" d="M909.383,192.25H290.243a2.462,2.462,0,1,1,0-4.925h619.14a2.463,2.463,0,1,1,0,4.925Z" transform="translate(-224.434 -115.485)" fill="#29292e"/>
    <ellipse id="Elipse_1" data-name="Elipse 1" cx="14.429" cy="14.751" rx="14.429" ry="14.751" transform="translate(93.525 29.768)" fill="#29292e"/>
    <ellipse id="Elipse_2" data-name="Elipse 2" cx="14.429" cy="14.751" rx="14.429" ry="14.751" transform="translate(143.372 29.768)" fill="#29292e"/>
    <ellipse id="Elipse_3" data-name="Elipse 3" cx="14.429" cy="14.751" rx="14.429" ry="14.751" transform="translate(193.219 29.768)" fill="#29292e"/>
    <path id="Caminho_12" data-name="Caminho 12" d="M879.367,148.9h-35.4a2.68,2.68,0,1,0,0,5.359h35.4a2.68,2.68,0,1,0,0-5.359Z" transform="translate(-224.434 -115.485)" fill="#29292e"/>
    <path id="Caminho_13" data-name="Caminho 13" d="M879.367,158.964h-35.4a2.68,2.68,0,1,0,0,5.359h35.4a2.68,2.68,0,1,0,0-5.359Z" transform="translate(-224.434 -115.485)" fill="#29292e"/>
    <path id="Caminho_14" data-name="Caminho 14" d="M879.367,169.027h-35.4a2.68,2.68,0,1,0,0,5.359h35.4a2.68,2.68,0,1,0,0-5.359Z" transform="translate(-224.434 -115.485)" fill="#29292e"/>
    <path id="Caminho_15" data-name="Caminho 15" d="M607.293,538.425h-.069a205.079,205.079,0,0,0-56.6,0h-.03a11.666,11.666,0,0,1-5.4-1.3,10.96,10.96,0,0,1-5.072-13.368,23.516,23.516,0,0,0,.234-16.339,11.46,11.46,0,0,1,1.19-10.1,10.622,10.622,0,0,1,8.216-4.861c.264-.018.528-.027.8-.027a163.532,163.532,0,0,0,56.654.007h.023a11.682,11.682,0,0,1,9.479,4.8,10.85,10.85,0,0,1,1.554,9.126c-1.445,5.625-1.377,11.7.211,18.568a10.526,10.526,0,0,1-.813,7.145A11.59,11.59,0,0,1,607.293,538.425Z" transform="translate(-224.434 -115.485)" fill="#8d1dfc"/>
    <path id="Caminho_16" data-name="Caminho 16" d="M665.036,440.378l-15.106-12.5c-11.328,5.937-28.564,29.642-28.564,29.642L581.6,486.12a8.656,8.656,0,1,0,8.119,12.589l54.028-28.55Z" transform="translate(-224.434 -115.485)" fill="#ffb8b8"/>
    <path id="Caminho_17" data-name="Caminho 17" d="M690.521,392.8h0a20.687,20.687,0,0,1-.32,31.838l-9.606,7.809s-23.961,34.493-36.433,38.495L612.143,487.67,597.705,473.2l29.019-23.649s13.347-12.624,14.683-21.866c.818-5.66,10.4-21.076,20-32.511a20.634,20.634,0,0,1,29.116-2.368Z" transform="translate(-224.434 -115.485)" fill="#121214"/>
    <path id="Caminho_18" data-name="Caminho 18" d="M435.043,651.672H421.4l-6.492-52.64H435.05Z" fill="#ffb6b6"/>
    <path id="Caminho_19" data-name="Caminho 19" d="M659.958,781.393H617.991v-.531a16.335,16.335,0,0,1,16.334-16.335h0l7.666-5.816,14.3,5.817h3.663Z" transform="translate(-224.434 -115.485)" fill="#202024"/>
    <path id="Caminho_20" data-name="Caminho 20" d="M539.027,579.842l-6.463,12.019-49.438-19.208,9.539-17.74Z" fill="#ffb6b6"/>
    <path id="Caminho_21" data-name="Caminho 21" d="M776.228,701.645l-19.874,36.963-.467-.251a16.336,16.336,0,0,1-6.652-22.122h0l-1.492-9.506,11.9-9.843,1.735-3.227Z" transform="translate(-224.434 -115.485)" fill="#202024"/>
    <path id="Caminho_22" data-name="Caminho 22" d="M633.676,526.095l-12.045,96.36,6.022,32.306,108.4,47.492,6.022-19.573c-27.71-16.956-57.331-42.617-75.995-44.5,0,0-1.548-17.1,11.823-27.654,2.7-2.129,2.107-5.01,3.2-7.621.75-1.8,3.735-3.666,4.5-5.508.991-2.387-.235-4.759.761-7.185.56-1.364,2.683-1.45,3.239-2.815.949-2.329.328-5.934,1.253-8.235,1.977-4.916,3.877-9.723,5.612-14.23,5.4-14.028,9.2-25.142,8.722-27.542C703.687,529.859,633.676,526.095,633.676,526.095Z" transform="translate(-224.434 -115.485)" fill="#29292e"/>
    <path id="Caminho_23" data-name="Caminho 23" d="M631.6,622.176l-6.3,40.693,15.9,83.046h21.079c7.573-27.9,7.963-64.578.753-95.607Z" transform="translate(-224.434 -115.485)" fill="#29292e"/>
    <path id="Caminho_24" data-name="Caminho 24" d="M645.143,408.363l9.717-16.932,10.433-8.37,19.573-3.011,5.438,4.181h0a139.024,139.024,0,0,1,20.378,101.358l-1.528,8.274-.97,5.252.42,6.278-3.266,9.139.449,6.692.24,3.574.241,3.587.336,5.007c.6,2.858-2.429,2.481-2,5,.753,4.424,4.128,10.979-1,11l-53-11c-13.464.055-26-16-13-29Z" transform="translate(-224.434 -115.485)" fill="#121214"/>
    <circle id="Elipse_4" data-name="Elipse 4" cx="25.736" cy="25.736" r="25.736" transform="translate(419.78 208.376)" fill="#ffb8b8"/>
    <path id="Caminho_25" data-name="Caminho 25" d="M670.388,374.6a66.143,66.143,0,0,0,11.251-.786c3.688-.75,11.939-6.8,14.239-10.435h0c1.709-2.7,2.8-6.925,3.418-9.99a29.564,29.564,0,0,0-5.171-23.47,9.34,9.34,0,0,0-3.773-3.22c-.135-.053-.274-.1-.415-.14a11.524,11.524,0,0,1-5.733-3.547,9.509,9.509,0,0,0-.953-.981,14.2,14.2,0,0,0-5.923-2.974c-3.521-.942-8.616-.007-15.144,2.783-3.28,1.4-6.866.894-9.625.3a.9.9,0,0,0-.85.291,6.373,6.373,0,0,1-4.332,1.727c-.986.043-2.021,1.409-3.272,3.19-.284.4-.615.876-.854,1.163l-.032-.551-.558.615a7.734,7.734,0,0,0,3.492,12.6,15.08,15.08,0,0,0,3.033.483c.621.056,1.263.114,1.878.22a11.66,11.66,0,0,1,8.665,7.567,3.049,3.049,0,0,0,4.6,1.48,5.038,5.038,0,0,1,4.591-.836,3.345,3.345,0,0,1,1.478,1.677,4.359,4.359,0,0,0,1.654,1.93c2.5,1.289,2.672,7,1.774,11.756-.865,4.587-2.576,7.9-4.159,8.069-1.219.126-1.359.213-1.447.428l-.079.193.137.181A4.98,4.98,0,0,0,670.388,374.6Z" transform="translate(-224.434 -115.485)" fill="#2f2e41"/>
    <path id="Caminho_26" data-name="Caminho 26" d="M618.293,359.425h-.069a205.076,205.076,0,0,0-56.6,0h-.03a11.666,11.666,0,0,1-5.4-1.3,10.96,10.96,0,0,1-5.072-13.368,23.516,23.516,0,0,0,.234-16.339,11.46,11.46,0,0,1,1.19-10.1,10.622,10.622,0,0,1,8.216-4.861c.264-.018.528-.027.8-.027a163.532,163.532,0,0,0,56.654.007h.023a11.683,11.683,0,0,1,9.479,4.8,10.85,10.85,0,0,1,1.554,9.126c-1.445,5.625-1.377,11.7.211,18.568a10.525,10.525,0,0,1-.813,7.145,11.59,11.59,0,0,1-10.368,6.356Z" transform="translate(-224.434 -115.485)" fill="#8d1dfc"/>
    <path id="Caminho_27" data-name="Caminho 27" d="M642.36,420.041l10.65-16.463c-7.221-10.556-32.777-24.9-32.777-24.9l-33.05-36.149a8.656,8.656,0,1,0-11.554,9.534L610.3,402.379Z" transform="translate(-224.434 -115.485)" fill="#ffb8b8"/>
    <path id="Caminho_28" data-name="Caminho 28" d="M692.589,439.792h0a20.687,20.687,0,0,1-31.657,3.4l-8.878-8.628s-37.215-19.432-42.647-31.351l-24.385-34.587,16.35-14.749,28.419,25.834s13.084,15.13,22.418,15.377c5.716.151,22.147,7.863,34.625,16.062a20.634,20.634,0,0,1,5.755,28.639Z" transform="translate(-224.434 -115.485)" fill="#121214"/>
    <path id="Caminho_29" data-name="Caminho 29" d="M444.679,781.244h-.069a205.081,205.081,0,0,0-56.6,0h-.03a11.666,11.666,0,0,1-5.4-1.3,10.96,10.96,0,0,1-5.072-13.368,23.516,23.516,0,0,0,.234-16.339,11.46,11.46,0,0,1,1.19-10.1,10.622,10.622,0,0,1,8.216-4.861c.264-.018.528-.027.8-.027a163.531,163.531,0,0,0,56.654.007h.023a11.683,11.683,0,0,1,9.479,4.8,10.85,10.85,0,0,1,1.554,9.126c-1.445,5.625-1.377,11.7.211,18.568a10.526,10.526,0,0,1-.813,7.145,11.59,11.59,0,0,1-10.368,6.356Z" transform="translate(-224.434 -115.485)" fill="#8d1dfc"/>
    <path id="Caminho_30" data-name="Caminho 30" d="M460.679,739.244h-.069a205.081,205.081,0,0,0-56.6,0h-.03a11.666,11.666,0,0,1-5.4-1.3,10.96,10.96,0,0,1-5.072-13.368,23.516,23.516,0,0,0,.234-16.339,11.46,11.46,0,0,1,1.19-10.1,10.622,10.622,0,0,1,8.216-4.861c.264-.018.528-.027.8-.027a163.532,163.532,0,0,0,56.654.007h.023a11.683,11.683,0,0,1,9.48,4.8,10.85,10.85,0,0,1,1.554,9.126c-1.445,5.625-1.377,11.7.211,18.568a10.526,10.526,0,0,1-.814,7.145,11.589,11.589,0,0,1-10.377,6.349Z" transform="translate(-224.434 -115.485)" fill="#8d1dfc"/>
    <path id="Caminho_31" data-name="Caminho 31" d="M320.666,750.693l.043-.055a205.076,205.076,0,0,0,31.715-46.881l.017-.025a11.666,11.666,0,0,1,4.107-3.745,10.96,10.96,0,0,1,13.915,3.289,23.516,23.516,0,0,0,13.4,9.35,11.46,11.46,0,0,1,7.7,6.643,10.622,10.622,0,0,1-.577,9.529q-.2.342-.424.674a163.533,163.533,0,0,0-31.751,46.921l-.013.019a11.683,11.683,0,0,1-9.286,5.163,10.849,10.849,0,0,1-8.429-3.826c-3.849-4.349-8.918-7.7-15.5-10.229a10.526,10.526,0,0,1-5.462-4.677,11.59,11.59,0,0,1,.545-12.15Z" transform="translate(-224.434 -115.485)" fill="#8d1dfc"/>
    <path id="Caminho_32" data-name="Caminho 32" d="M974.375,782.769l-748.75.307a1.191,1.191,0,1,1,0-2.381l748.75-.307a1.191,1.191,0,1,1,0,2.381Z" transform="translate(-224.434 -115.485)" fill="#202024"/>
  </g>
</svg>
