<svg xmlns="http://www.w3.org/2000/svg" width="35" height="40" viewBox="0 0 35 40">
  <path id="iconmonstr-discord-1" d="M31.9,0A4.11,4.11,0,0,1,36,4.12V40l-4.3-3.8-2.42-2.24-2.56-2.38,1.06,3.7H5.1A4.11,4.11,0,0,1,1,31.16V4.12A4.11,4.11,0,0,1,5.1,0H31.9ZM24.18,26.12a7.311,7.311,0,0,0,6.12-3.04,26.783,26.783,0,0,0-2.88-11.66,9.89,9.89,0,0,0-5.62-2.1l-.28.32a13.31,13.31,0,0,1,4.98,2.54,16.3,16.3,0,0,0-6.02-1.92,16.922,16.922,0,0,0-4.04.04l-.34.04a15.019,15.019,0,0,0-4.54,1.26c-.74.34-1.18.58-1.18.58a13.493,13.493,0,0,1,5.26-2.62l-.2-.24a9.89,9.89,0,0,0-5.62,2.1A26.783,26.783,0,0,0,6.94,23.08a7.251,7.251,0,0,0,6.1,3.04s.74-.9,1.34-1.66a6.22,6.22,0,0,1-3.5-2.36l.56.34.08.06.078.045.023.01.078.045a11.721,11.721,0,0,0,1.46.68,16.789,16.789,0,0,0,2.94.86,14.01,14.01,0,0,0,5.18.02,13.164,13.164,0,0,0,2.9-.86,11.445,11.445,0,0,0,2.3-1.18,6.311,6.311,0,0,1-3.62,2.38c.6.76,1.32,1.62,1.32,1.62Zm-9.3-9.34a2.228,2.228,0,0,0,0,4.44A2.131,2.131,0,0,0,16.92,19,2.118,2.118,0,0,0,14.88,16.78Zm7.3,0A2.228,2.228,0,1,0,24.22,19,2.131,2.131,0,0,0,22.18,16.78Z" transform="translate(-1)" fill="#8d1dfc" fill-rule="evenodd"/>
</svg>
