<svg xmlns="http://www.w3.org/2000/svg" width="40" height="39.014" viewBox="0 0 40 39.014">
  <path id="iconmonstr-github-1" d="M20,0a20,20,0,0,0-6.322,38.978c1,.185,1.322-.435,1.322-.962V34.293c-5.563,1.21-6.722-2.36-6.722-2.36a5.3,5.3,0,0,0-2.222-2.927c-1.815-1.242.138-1.215.138-1.215A4.2,4.2,0,0,1,9.26,29.853c1.783,3.057,4.678,2.173,5.82,1.662a4.243,4.243,0,0,1,1.27-2.673c-4.442-.508-9.112-2.223-9.112-9.885A7.741,7.741,0,0,1,9.3,13.588a7.194,7.194,0,0,1,.2-5.293s1.68-.537,5.5,2.05a18.957,18.957,0,0,1,10.015,0c3.818-2.587,5.5-2.05,5.5-2.05a7.187,7.187,0,0,1,.2,5.293,7.72,7.72,0,0,1,2.058,5.368c0,7.682-4.678,9.373-9.132,9.868A4.781,4.781,0,0,1,25,32.528v5.488c0,.532.32,1.157,1.335.96A20,20,0,0,0,20,0Z" fill="#8d1dfc"/>
</svg>
